<?xml version="1.0" encoding="utf-8"?>
<!-- Generator: Adobe Illustrator 18.0.0, SVG Export Plug-In . SVG Version: 6.00 Build 0)  -->
<!DOCTYPE svg PUBLIC "-//W3C//DTD SVG 1.1//EN" "http://www.w3.org/Graphics/SVG/1.1/DTD/svg11.dtd">
<svg version="1.1" id="Layer_1" xmlns="http://www.w3.org/2000/svg" xmlns:xlink="http://www.w3.org/1999/xlink" x="0px" y="0px"
	 viewBox="0 0 137.623 57.362" enable-background="new 0 0 137.623 57.362" xml:space="preserve">
<polygon points="0,0 137.623,0 137.623,57.362 0,57.362 0,0 "/>
<rect x="19.486" y="18.034" fill-rule="evenodd" clip-rule="evenodd" fill="#FFFFFF" width="21.254" height="21.254"/>
<path fill="#CC0000" d="M43.652,28.658v-0.003c0-2.094,0.086-3.962,1.639-7.26c0.453-0.955,1.443-2.357-0.018-3.981
	c-1.184-1.184-2.539-0.985-3.447-0.466c0.521-0.908,0.719-2.263-0.467-3.448c-1.627-1.462-3.025-0.471-3.984-0.022
	c-3.291,1.559-5.162,1.646-7.262,1.646h-0.002c-2.098,0-3.967-0.086-7.26-1.646c-0.955-0.448-2.358-1.439-3.981,0.022
	c-1.184,1.186-0.988,2.54-0.469,3.448c-0.91-0.522-2.262-0.718-3.447,0.466c-1.461,1.624-0.469,3.026-0.018,3.981
	c1.553,3.298,1.637,5.163,1.637,7.263l0,0c0,2.099-0.084,3.972-1.637,7.264c-0.451,0.956-1.443,2.358,0.018,3.987
	c1.186,1.18,2.537,0.98,3.447,0.465c-0.521,0.907-0.719,2.26,0.469,3.447c1.623,1.462,3.025,0.471,3.981,0.015
	c3.293-1.552,5.16-1.639,7.262-1.639l0,0c2.1,0,3.971,0.087,7.26,1.639c0.961,0.456,2.359,1.447,3.986-0.015
	c1.184-1.188,0.988-2.54,0.465-3.447c0.91,0.519,2.266,0.718,3.449-0.465c1.461-1.629,0.471-3.031,0.018-3.986
	C43.738,32.628,43.652,30.758,43.652,28.658z M40.05,38.62l-7.715-6.474c0,0-1.041-1.017-2.223-1.017
	c-1.178,0-2.225,1.017-2.225,1.017l-7.711,6.474l-0.029-0.024l6.479-7.713c0,0,1.016-1.044,1.016-2.225
	c0-1.179-1.016-2.22-1.016-2.22l-6.479-7.719l0.029-0.026l7.713,6.477c0,0,1.045,1.019,2.223,1.019c1.182,0,2.223-1.019,2.223-1.019
	l7.711-6.474l0.025,0.025l-6.469,7.717c0,0-1.019,1.041-1.019,2.22c0,1.181,1.019,2.225,1.019,2.225l6.469,7.713L40.05,38.62z"/>
<path fill="#FFFFFF" d="M121.32,14.571l0.275-0.003l0.1,5.052l-0.307-0.004c-0.498-2.05-2.475-3.995-6.436-4.201
	c-4.686-0.243-6.715,2.548-6.736,5.184c-0.027,3.515,2.707,4.239,6.76,5.225c1.914,0.466,8.994,1.392,8.428,9.35
	c-0.394,5.558-5.191,8.203-11.984,7.989c0,0-2.82-0.097-6.766-1.188c-0.738-0.204-0.922,0.042-1.225,0.581l-0.316,0.017l0.01-5.452
	l0.314,0.02c0.16,0.552,0.199,1.577,1.195,2.454c0.738,0.64,2.441,2.227,6.197,2.265c3.688,0.046,6.74-1.513,7.154-5.636
	c0.111-1.116-0.016-3.659-2.498-4.823c-1.943-0.911-7.336-1.512-9.957-3.802c0,0-3.102-2.158-2.609-6.195
	c0.691-5.698,5.445-7.123,9.717-7.214c0,0,3.828-0.035,6.871,0.755c0,0,0.752,0.201,1.379-0.035
	C121.127,14.825,121.25,14.667,121.32,14.571z M94.597,27.692c6.947,1.724,7.367,6.738,7.266,8.146
	c-0.309,6.275-5.639,6.995-7.779,6.995H77.699l0.018-0.319c1.189-0.158,2.082-0.814,2.082-2.902l0.1-21.615
	c0.025-2.349-0.596-3.061-1.895-3.213l-0.023-0.299h12.393c2.271,0,9.117-0.454,9.699,5.842
	C100.537,25.363,95.005,27.473,94.597,27.692z M96.421,35.878c0.127-6.088-4.34-7.704-8.969-7.958
	c-0.094-0.006-0.057-0.238,0.012-0.249c1.506-0.058,7.484-0.751,7.234-6.46c-0.242-5.558-4.461-5.681-6.004-5.701
	c-1.258-0.013-1.533-0.013-2.06,0.009c-0.893,0.035-1.117,0.099-1.113,1.076c0,0.126-0.199,10.017-0.315,16.969
	c-0.059,3.78-0.068,6.699-0.068,6.699c0.016,0.685-0.072,1.39,1.635,1.472c1.764,0.087,4.035,0.155,5.623-0.18
	C93.849,41.241,96.334,40.183,96.421,35.878z M63.771,14.484c5.9-0.029,13.67,4.021,13.643,14.133
	c-0.025,8.796-6.369,14.213-12.246,14.213l-14.885,0.003l0.018-0.316c0.842-0.142,1.771-0.668,1.93-1.226
	c0.492-2.122,0.387-21.51,0.08-24.7c-0.094-0.997-0.877-1.64-1.846-1.798l-0.018-0.31C50.447,14.484,62.447,14.491,63.771,14.484z
	 M66.47,40.994c2.637-0.947,5.914-5.455,5.373-12.562c-0.522-6.876-3.147-12.27-10.121-12.776c0,0-1.32-0.095-2.428-0.103
	c-1.185-0.006-1.447-0.044-1.529,1.217c-0.158,2.371-0.205,20.858-0.049,23.53c0.023,0.363,0.062,1.245,1.588,1.393
	C62.084,41.966,64.386,41.749,66.47,40.994z"/>
</svg>
