<svg xmlns="http://www.w3.org/2000/svg" xmlns:xlink="http://www.w3.org/1999/xlink" viewBox="0 0 283.47 212.6"><defs><style>.cls-1{fill:url(#linear-gradient);}.cls-2{fill:#b9b9b9;fill-rule:evenodd;}.cls-3{fill:#fff;}</style><linearGradient id="linear-gradient" x1="141.73" y1="106.3" x2="141.73" y2="8.5" gradientUnits="userSpaceOnUse"><stop offset="0" stop-color="#a8b9d2"/><stop offset="0" stop-color="#a6b7d1"/><stop offset="0.12" stop-color="#7a92b0"/><stop offset="0.25" stop-color="#557294"/><stop offset="0.38" stop-color="#36587d"/><stop offset="0.51" stop-color="#1e446b"/><stop offset="0.65" stop-color="#0d355f"/><stop offset="0.81" stop-color="#032d57"/><stop offset="1" stop-color="#002a55"/></linearGradient></defs><title>Asset 1</title><g id="Layer_2" data-name="Layer 2"><g id="Layer_1-2" data-name="Layer 1"><rect x="8.5" y="106.3" width="266.46" height="97.79"/><rect class="cls-1" x="8.5" y="8.5" width="266.46" height="97.79"/><path class="cls-2" d="M0,0V212.6H283.47V0ZM275,204.09H8.5V8.5H275Z"/><path class="cls-3" d="M52.15,53.68c-7.22-2.81-10.35-4.73-10.35-8.9,0-3.12,2.72-6.49,9-6.49,2,0,3.9.1,10,1.73a.7.7,0,0,0,.87-.49c.14-.42,1.69-6.09,1.81-6.58a.65.65,0,0,0-.53-.85c-6.08-1.73-9.08-1.91-12-1.91-11.71,0-19.09,6.74-19.09,15.56,0,7.78,5.7,12.51,14.6,15.72,6.9,2.49,9.62,4.89,9.62,9,0,4.41-3.53,7.38-9.86,7.38-1.92,0-4.81-.11-12.16-2.34a.69.69,0,0,0-.89.46c-.13.4-1.95,6.12-2.09,6.57a.66.66,0,0,0,.5.87c7.6,2.35,11.32,2.62,14,2.62,14,0,20.65-7.62,20.65-16.28C66.23,61.94,61.53,57.21,52.15,53.68ZM112.22,31.6a.6.6,0,0,0-.65-.42h-11.5a.6.6,0,0,0-.65.44c-.1.32-16.72,52.16-16.83,52.53a.68.68,0,0,0,.64.9H91.8a.86.86,0,0,0,.87-.7L96.39,72.1h18.54s3.82,12,3.93,12.38a.7.7,0,0,0,.7.57h9.12a.63.63,0,0,0,.67-.85C129.16,83.61,112.32,31.87,112.22,31.6Zm-14.37,34s3.92-13.63,4.73-16.52c1.19-4.23,2.1-7.88,2.53-9.65.18-.73.54-.72.73,0,.49,1.86,1.53,5.71,2.66,9.64,1.57,5.48,4.88,16.52,4.88,16.52ZM175,58.26a3.36,3.36,0,0,1,.08-3.68c.75-1.4,11.52-21.51,11.87-22.19s.17-1.2-.52-1.2h-8.26a1.12,1.12,0,0,0-1.19.65c-.24.49-6.64,13.15-9.83,19.34-.49.95-.94,1-1.43,0-3.94-8.11-9-18.54-9.31-19.14a1.43,1.43,0,0,0-1.44-.84h-9.16c-.67,0-1.12.35-.72,1.06s12.42,21.66,12.81,22.34a3.51,3.51,0,0,1,.14,3.83L144.51,84c-.33.63,0,1,.53,1h8.9a1.14,1.14,0,0,0,1.21-.74c.31-.58,7.62-15.1,10.59-21.08.4-.8,1-.83,1.38,0,1.71,3.42,10.33,20.48,10.64,21.08s.58.74,1,.74h9.67c.63,0,.93-.35.6-1S175.73,59.56,175,58.26Zm54.36-27.79c-15.41,0-24.21,12-24.21,27,0,16,7.72,28.52,24.21,28.52S253.6,73.48,253.6,57.45C253.6,42.43,244.8,30.46,229.38,30.46Zm0,47.84c-11.27,0-13.67-10.58-13.67-20.86,0-9.88,2.95-19.31,13.67-19.31s13.67,9.43,13.67,19.31C243.05,67.72,240.66,78.3,229.38,78.3Z"/><path class="cls-3" d="M43.46,147.74a14.48,14.48,0,0,0,5.86-1,.3.3,0,0,0,.16-.33l-.67-3.17a.3.3,0,0,0-.42-.21,11.47,11.47,0,0,1-4.27.77,7.25,7.25,0,0,1-5.44-2.05,9.1,9.1,0,0,1,.15-11.42,7.37,7.37,0,0,1,5.34-2,10.16,10.16,0,0,1,4.18.84.3.3,0,0,0,.42-.2l.88-3.21a.3.3,0,0,0-.15-.35,12.63,12.63,0,0,0-5.49-1,12.35,12.35,0,0,0-8.65,3.18,11.73,11.73,0,0,0-3.47,8.76,11.4,11.4,0,0,0,3.1,8.29A11.64,11.64,0,0,0,43.46,147.74Zm102.8-.43a.31.31,0,0,0,.09-.21V125a.31.31,0,0,0-.3-.3h-4a.3.3,0,0,0-.3.3V147.1a.3.3,0,0,0,.3.3h4A.3.3,0,0,0,146.25,147.31Zm76.41,14.26H206a.3.3,0,0,0-.3.3v3.39a.3.3,0,0,0,.3.3h6v18.38a.3.3,0,0,0,.3.3h4a.3.3,0,0,0,.21-.09.31.31,0,0,0,.09-.21V165.57h6.06a.3.3,0,0,0,.3-.3v-3.39a.29.29,0,0,0-.09-.21A.3.3,0,0,0,222.67,161.57ZM182.1,128.63a.3.3,0,0,0,.09-.21V125a.3.3,0,0,0-.09-.21.31.31,0,0,0-.21-.09h-16.7a.3.3,0,0,0-.3.3v3.39a.3.3,0,0,0,.3.3h6V147.1a.3.3,0,0,0,.3.3h4a.3.3,0,0,0,.21-.09.3.3,0,0,0,.09-.21V128.72h6.06A.3.3,0,0,0,182.1,128.63Zm69.79,14.87a.3.3,0,0,0-.21-.09H242.9V125a.3.3,0,0,0-.09-.21.3.3,0,0,0-.21-.09h-4a.31.31,0,0,0-.3.3V147.1a.3.3,0,0,0,.09.21.3.3,0,0,0,.21.09h13.11a.3.3,0,0,0,.21-.09.31.31,0,0,0,.09-.21v-3.38A.3.3,0,0,0,251.89,143.5ZM54.69,161.57H49.46a.3.3,0,0,0-.29.21l-4.84,13.51c-.06.17-.21.2-.27,0l-4.58-13.5a.3.3,0,0,0-.29-.21h-5.3a.3.3,0,0,0-.3.28l-1.47,22.07a.3.3,0,0,0,.08.23.3.3,0,0,0,.22.1h3.76a.3.3,0,0,0,.3-.29L37,175.1c.12-2.16.22-4.59.31-6.85,0-.16.08-.21.13,0,.85,2.88,4.64,12.4,4.64,12.4a.31.31,0,0,0,.29.21h3.1a.3.3,0,0,0,.29-.2s4.09-9.53,5.14-12.56c.07-.21.17-.18.18,0,0,2.35.15,4.8.25,6.92l.43,9a.3.3,0,0,0,.3.29H56a.3.3,0,0,0,.3-.32L55,161.86A.3.3,0,0,0,54.69,161.57Zm136,18.76h-9v-5.87h7.2a.29.29,0,0,0,.21-.09.3.3,0,0,0,.09-.21v-3.29a.3.3,0,0,0-.09-.21.3.3,0,0,0-.21-.09h-7.2V165.5h8.51a.31.31,0,0,0,.3-.3v-3.32a.3.3,0,0,0-.09-.21.31.31,0,0,0-.21-.09H177.35a.3.3,0,0,0-.3.3v22.07a.31.31,0,0,0,.09.21.3.3,0,0,0,.21.09h13.33a.3.3,0,0,0,.3-.3v-3.32a.3.3,0,0,0-.09-.21A.3.3,0,0,0,190.69,180.33Zm55-9.51a12.2,12.2,0,0,1-3.13-1.54,2.11,2.11,0,0,1-.89-1.79c0-1.11.89-2.33,3.34-2.36a9.25,9.25,0,0,1,4.27,1,.31.31,0,0,0,.26,0,.3.3,0,0,0,.17-.19l1-3.25a.3.3,0,0,0-.15-.36,12,12,0,0,0-5.43-1.12,9.06,9.06,0,0,0-5.89,1.88,6.08,6.08,0,0,0-2.22,4.76,5.65,5.65,0,0,0,1.71,4.12,11.77,11.77,0,0,0,4.47,2.58,8.74,8.74,0,0,1,2.9,1.52,2.51,2.51,0,0,1-.11,3.8,4.5,4.5,0,0,1-2.79.77,10.87,10.87,0,0,1-5.18-1.37.31.31,0,0,0-.27,0,.3.3,0,0,0-.18.2l-.89,3.34a.3.3,0,0,0,.13.34,13.09,13.09,0,0,0,6.12,1.45h0a9.63,9.63,0,0,0,6.52-2.06,6.35,6.35,0,0,0,2.15-4.87,5.94,5.94,0,0,0-1.48-4.12A11,11,0,0,0,245.71,170.82ZM73.23,143h7.68l1.36,4.23a.3.3,0,0,0,.29.21h4.33a.3.3,0,0,0,.29-.4L80,124.93a.31.31,0,0,0-.29-.21H74.58a.3.3,0,0,0-.29.21L67.21,147a.3.3,0,0,0,.29.4h4.17a.3.3,0,0,0,.29-.21Zm3-10.51c.27-.9.51-1.9.74-2.85,0-.09.11-.09.13,0,.24.94.5,1.94.79,2.87L80,139.3h-6Zm137.6,14.74a.3.3,0,0,0,.29.21h4.33a.3.3,0,0,0,.29-.4l-7.17-22.07a.31.31,0,0,0-.29-.21h-5.13a.3.3,0,0,0-.29.21L198.74,147a.3.3,0,0,0,.29.4h4.17a.3.3,0,0,0,.29-.21l1.28-4.23h7.68Zm-8.2-7.89,2.13-6.85c.27-.9.51-1.9.74-2.85,0-.09.11-.09.13,0,.24.94.5,1.94.79,2.87l2.18,6.83ZM84.75,161.79a.31.31,0,0,0-.29-.21H79.32a.3.3,0,0,0-.29.21L72,183.86a.3.3,0,0,0,.29.4h4.17a.3.3,0,0,0,.29-.21L78,179.81h7.68L87,184a.3.3,0,0,0,.29.21h4.33a.3.3,0,0,0,.29-.4Zm-5.94,14.37,2.13-6.85c.27-.9.51-1.9.74-2.85,0-.09.11-.09.13,0,.24.94.5,1.94.79,2.87l2.18,6.83Zm32.44-28.84a.3.3,0,0,0,.09-.21v-7.94h1.61c2.91,0,5.55-.72,7.25-2.4a7,7,0,0,0,2-5.21,6.51,6.51,0,0,0-2.27-5.12c-1.48-1.25-3.71-1.7-6.69-1.7H107a.28.28,0,0,0-.25.3V147.1a.3.3,0,0,0,.3.3h4A.3.3,0,0,0,111.24,147.31Zm.09-19h2a4.85,4.85,0,0,1,3.1.8,3.11,3.11,0,0,1,1.09,2.55,3.45,3.45,0,0,1-1.19,2.78,5.15,5.15,0,0,1-3.36,1h-1.67Zm11.76,49.38a6.28,6.28,0,0,0-2.72-4.23,6.09,6.09,0,0,0,3.66-5.58,5.86,5.86,0,0,0-2-4.67c-1.57-1.31-3.81-1.68-7-1.68h-6.17a.28.28,0,0,0-.25.3v22.08a.31.31,0,0,0,.09.21.3.3,0,0,0,.21.09h4a.3.3,0,0,0,.3-.3v-8.77h1.73a3.36,3.36,0,0,1,2.4.79,5.43,5.43,0,0,1,1.28,2.84,28.31,28.31,0,0,0,1.52,5.29.3.3,0,0,0,.27.16h4.14a.3.3,0,0,0,.27-.44A49.41,49.41,0,0,1,123.09,177.72Zm-4.75-7a4.68,4.68,0,0,1-3,.93h-2.08v-6.5h2.2a4.79,4.79,0,0,1,2.94.74,2.89,2.89,0,0,1,1.06,2.43A3,3,0,0,1,118.34,170.69Zm33.75,1.5s8.57-10,8.75-10.26,0-.36-.23-.36h-4.37c-.28,0-.33,0-.53.29s-7.71,9.18-7.87,9.39-.42.24-.42-.22v-9.17a.3.3,0,0,0-.09-.21.31.31,0,0,0-.21-.09h-4a.3.3,0,0,0-.3.3v22.07a.3.3,0,0,0,.3.3h4a.3.3,0,0,0,.3-.3V173.39c0-.41.21-.49.41-.21L156,183.95a.59.59,0,0,0,.56.31h4.85c.33,0,.33-.15.24-.3Z"/></g></g></svg>