<?xml version="1.0" encoding="utf-8"?>
<!-- Generator: Adobe Illustrator 16.0.4, SVG Export Plug-In . SVG Version: 6.00 Build 0)  -->
<!DOCTYPE svg PUBLIC "-//W3C//DTD SVG 1.1//EN" "http://www.w3.org/Graphics/SVG/1.1/DTD/svg11.dtd">
<svg version="1.1" id="Layer_1" xmlns="http://www.w3.org/2000/svg" xmlns:xlink="http://www.w3.org/1999/xlink" x="0px" y="0px"
	 width="256px" height="256px" viewBox="0 0 256 256" enable-background="new 0 0 256 256" xml:space="preserve">
<g>
	<path fill="#00A7CF" d="M235.143,110.145c-8.358,0-15.316,5.761-17.264,13.512c-0.204-0.029-0.384-0.119-0.593-0.119H190.5
		c-2.465,0-4.464,1.994-4.464,4.464s1.999,4.458,4.464,4.458h26.786c0.209,0,0.389-0.09,0.593-0.119
		c1.947,7.749,8.905,13.515,17.264,13.515c9.859,0,17.857-7.986,17.857-17.854C253,118.137,245.002,110.145,235.143,110.145z
		 M235.143,136.928c-4.923,0-8.929-4.003-8.929-8.926c0-4.924,4.006-8.929,8.929-8.929c4.924,0,8.929,4.005,8.929,8.929
		C244.071,132.925,240.066,136.928,235.143,136.928z"/>
	<path fill="#00A7CF" d="M65.5,96.752H38.714c-7.388,0-13.393-5.005-13.393-11.161V74.43c0-0.212-0.093-0.392-0.119-0.593
		c7.749-1.95,13.512-8.908,13.512-17.264c0-9.865-7.999-17.857-17.857-17.857C10.993,38.716,3,46.708,3,56.573
		c0,8.359,5.761,15.317,13.512,17.264c-0.026,0.204-0.119,0.384-0.119,0.593v11.161c0,11.074,10.01,20.089,22.321,20.089H65.5
		c2.465,0,4.464-1.994,4.464-4.464C69.964,98.746,67.965,96.752,65.5,96.752z M11.929,56.573c0-4.93,4.005-8.929,8.928-8.929
		c4.924,0,8.929,3.999,8.929,8.929c0,4.923-4.005,8.929-8.929,8.929C15.934,65.502,11.929,61.497,11.929,56.573z"/>
	<path fill="#00A7CF" d="M190.5,105.68h26.786c12.306,0,22.321-9.016,22.321-20.089V74.43c0-0.212-0.094-0.392-0.122-0.593
		C247.233,71.887,253,64.929,253,56.573c0-9.865-7.998-17.857-17.857-17.857c-9.864,0-17.856,7.993-17.856,17.857
		c0,8.359,5.76,15.317,13.515,17.264c-0.029,0.204-0.122,0.384-0.122,0.593v11.161c0,6.156-6.011,11.161-13.393,11.161H190.5
		c-2.465,0-4.464,1.994-4.464,4.464C186.036,103.687,188.035,105.68,190.5,105.68z M226.214,56.573c0-4.93,4.006-8.929,8.929-8.929
		c4.924,0,8.929,3.999,8.929,8.929c0,4.923-4.005,8.929-8.929,8.929C230.22,65.502,226.214,61.497,226.214,56.573z"/>
	<path fill="#00A7CF" d="M65.5,150.32H38.714c-12.312,0-22.321,9.01-22.321,20.089v11.161c0,0.209,0.093,0.384,0.119,0.593
		C8.761,184.116,3,191.068,3,199.428c0,9.87,7.993,17.856,17.857,17.856c9.859,0,17.857-7.986,17.857-17.856
		c0-8.359-5.764-15.312-13.512-17.265c0.026-0.209,0.119-0.384,0.119-0.593v-11.161c0-6.149,6.005-11.16,13.393-11.16H65.5
		c2.465,0,4.464-1.988,4.464-4.465C69.964,152.32,67.965,150.32,65.5,150.32z M29.786,199.428c0,4.929-4.005,8.928-8.929,8.928
		c-4.923,0-8.928-3.999-8.928-8.928c0-4.918,4.005-8.929,8.928-8.929C25.781,190.499,29.786,194.51,29.786,199.428z"/>
	<path fill="#00A7CF" d="M239.485,182.163c0.028-0.209,0.122-0.384,0.122-0.593v-11.161c0-11.079-10.016-20.089-22.321-20.089H190.5
		c-2.465,0-4.464,2-4.464,4.464c0,2.477,1.999,4.465,4.464,4.465h26.786c7.382,0,13.393,5.011,13.393,11.16v11.161
		c0,0.209,0.093,0.384,0.122,0.593c-7.755,1.953-13.515,8.905-13.515,17.265c0,9.87,7.992,17.856,17.856,17.856
		c9.859,0,17.857-7.986,17.857-17.856C253,191.068,247.233,184.116,239.485,182.163z M235.143,208.355
		c-4.923,0-8.929-3.999-8.929-8.928c0-4.918,4.006-8.929,8.929-8.929c4.924,0,8.929,4.011,8.929,8.929
		C244.071,204.356,240.066,208.355,235.143,208.355z"/>
	<path fill="#00A7CF" d="M65.5,123.538H38.714c-0.209,0-0.393,0.093-0.593,0.119c-1.951-7.751-8.911-13.512-17.265-13.512
		C10.993,110.145,3,118.137,3,128.002c0,9.867,7.993,17.854,17.857,17.854c8.354,0,15.317-5.766,17.265-13.515
		c0.203,0.029,0.383,0.119,0.593,0.119H65.5c2.465,0,4.464-1.987,4.464-4.458S67.965,123.538,65.5,123.538z M20.857,136.928
		c-4.923,0-8.928-4.003-8.928-8.926c0-4.924,4.005-8.929,8.928-8.929c4.924,0,8.929,4.005,8.929,8.929
		C29.786,132.925,25.781,136.928,20.857,136.928z"/>
	<path fill="#00A7CF" d="M128,74.401c-27.143,0-49.107,7.975-49.107,17.857v71.431c0,9.882,21.964,17.857,49.107,17.857
		c27.141,0,49.107-7.976,49.107-17.857V92.258C177.107,82.376,155.141,74.401,128,74.401z M167.702,163.689
		c-3.272,3.151-16.724,8.929-39.702,8.929c-22.976,0-36.429-5.777-39.702-8.929v-13.276c0.954,0.477,1.965,0.896,3.035,1.372
		c4.764,1.906,10.655,3.511,17.38,4.522c5.894,0.896,12.442,1.43,19.287,1.43c6.848,0,13.393-0.534,19.287-1.43
		c6.726-1.012,12.62-2.616,17.381-4.522c1.069-0.477,2.081-0.896,3.034-1.372V163.689z M167.702,139.88
		c-2.203,2.14-9.109,5.477-20.415,7.383c-5.418,0.953-11.847,1.546-19.287,1.546s-13.87-0.593-19.287-1.546
		c-11.309-1.906-18.212-5.243-20.415-7.383v-13.276c0.954,0.477,1.965,0.893,3.035,1.369c4.764,1.903,10.655,3.511,17.38,4.522
		c5.894,0.896,12.442,1.43,19.287,1.43c6.848,0,13.393-0.534,19.287-1.43c6.726-1.012,12.62-2.619,17.381-4.522
		c1.069-0.477,2.081-0.893,3.034-1.369V139.88z M167.702,116.068c-2.203,2.142-9.109,5.476-20.415,7.382
		c-5.418,0.95-11.847,1.546-19.287,1.546s-13.87-0.596-19.287-1.546c-11.309-1.907-18.212-5.24-20.415-7.382v-13.274
		c0.954,0.477,1.965,0.893,3.035,1.369c4.764,1.904,10.655,3.511,17.38,4.522c5.894,0.895,12.442,1.43,19.287,1.43
		c6.848,0,13.393-0.535,19.287-1.43c6.726-1.012,12.62-2.619,17.381-4.522c1.069-0.477,2.081-0.892,3.034-1.369V116.068z
		 M147.287,99.641c-5.418,0.95-11.847,1.546-19.287,1.546s-13.87-0.596-19.287-1.546c-11.309-1.907-18.212-5.24-20.415-7.382
		c3.273-3.153,16.727-8.929,39.702-8.929c22.979,0,36.43,5.775,39.702,8.929C165.499,94.4,158.593,97.734,147.287,99.641z"/>
</g>
</svg>
