<?xml version="1.0" encoding="utf-8"?>
<!-- Generator: Adobe Illustrator 16.0.4, SVG Export Plug-In . SVG Version: 6.00 Build 0)  -->
<!DOCTYPE svg PUBLIC "-//W3C//DTD SVG 1.1//EN" "http://www.w3.org/Graphics/SVG/1.1/DTD/svg11.dtd">
<svg version="1.1" xmlns="http://www.w3.org/2000/svg" xmlns:xlink="http://www.w3.org/1999/xlink" x="0px" y="0px" width="256px"
	 height="256px" viewBox="0 0 256 256" enable-background="new 0 0 256 256" xml:space="preserve">
<g id="Layer_1" display="none">
	<g id="yiJkn5.tif" display="inline">
		
			<image overflow="visible" width="96" height="96" id="Layer_0" xlink:href="2DBE2DDC5197A166.png"  transform="matrix(1 0 0 1 80 80)">
		</image>
	</g>
</g>
<g id="Layer_2" display="none">
	<path display="inline" fill="#00A7CF" d="M95.969,133.164h-6.25v-6.5c0-0.414-0.334-0.75-0.75-0.75c-0.414,0-0.75,0.336-0.75,0.75
		v6.5h-6.25c-0.828,0-1.5,0.67-1.5,1.5v31.5c0,0.828,0.672,1.5,1.5,1.5h6.25v6.5c0,0.414,0.334,0.75,0.75,0.75
		c0.414,0,0.75-0.336,0.75-0.75v-6.5h6.25c0.829,0,1.5-0.672,1.5-1.5v-31.5C97.469,133.834,96.798,133.164,95.969,133.164z
		 M95.969,166.164h-14v-31.5h14V166.164z"/>
	<path display="inline" fill="#00A7CF" d="M148.719,128.164h-6.25v-6.5c0-0.414-0.334-0.75-0.75-0.75c-0.414,0-0.75,0.336-0.75,0.75
		v6.5h-6.25c-0.828,0-1.5,0.67-1.5,1.5v27.5c0,0.828,0.672,1.5,1.5,1.5h6.25v6.5c0,0.414,0.334,0.75,0.75,0.75
		c0.414,0,0.75-0.336,0.75-0.75v-6.5h6.25c0.829,0,1.5-0.672,1.5-1.5v-27.5C150.219,128.834,149.548,128.164,148.719,128.164z
		 M148.719,157.164h-14v-27.5h14V157.164z"/>
	<path display="inline" fill="#00A7CF" d="M173.656,88.227h-6.25v-6.5c0-0.414-0.334-0.75-0.75-0.75c-0.414,0-0.75,0.336-0.75,0.75
		v6.5h-6.25c-0.828,0-1.5,0.67-1.5,1.5v36.5c0,0.828,0.672,1.5,1.5,1.5h6.25v6.5c0,0.414,0.334,0.75,0.75,0.75
		c0.414,0,0.75-0.336,0.75-0.75v-6.5h6.25c0.829,0,1.5-0.672,1.5-1.5v-36.5C175.156,88.896,174.485,88.227,173.656,88.227z
		 M173.656,126.227h-14v-36.5h14V126.227z"/>
	<path display="inline" fill="#00A7CF" d="M120.969,101.164h-6.25v-6.5c0-0.414-0.334-0.75-0.75-0.75c-0.414,0-0.75,0.336-0.75,0.75
		v6.5h-6.25c-0.828,0-1.5,0.67-1.5,1.5v40.5c0,0.828,0.672,1.5,1.5,1.5h6.25v6.5c0,0.414,0.334,0.75,0.75,0.75
		c0.414,0,0.75-0.336,0.75-0.75v-6.5h6.25c0.829,0,1.5-0.672,1.5-1.5v-40.5C122.469,101.834,121.798,101.164,120.969,101.164z
		 M120.969,143.164h-14v-40.5h14V143.164z"/>
</g>
<g id="Layer_3">
	<path fill="#00A7CF" d="M46.998,136.676H33.397v-11.923c0-2.351-1.848-4.198-4.199-4.198c-2.296,0-4.198,1.848-4.198,4.198v11.923
		H11.396c-4.646,0-8.396,3.75-8.396,8.396v80.163c0,4.592,3.75,8.396,8.396,8.396H25v11.923c0,2.296,1.902,4.198,4.198,4.198
		c2.351,0,4.199-1.902,4.199-4.198v-11.923h13.601c4.647,0,8.397-3.805,8.397-8.396v-80.163
		C55.395,140.426,51.645,136.676,46.998,136.676z M46.998,225.235H11.396v-80.163h35.602V225.235z"/>
	<path fill="#00A7CF" d="M110.591,55.283H96.988V43.36c0-2.351-1.902-4.199-4.198-4.199s-4.199,1.848-4.199,4.199v11.922H74.987
		c-4.644,0-8.396,3.753-8.396,8.397v103.057c0,4.592,3.752,8.396,8.396,8.396h13.604v11.923c0,2.296,1.903,4.198,4.199,4.198
		s4.198-1.902,4.198-4.198v-11.923h13.604c4.647,0,8.397-3.805,8.397-8.396V63.68C118.988,59.036,115.238,55.283,110.591,55.283z
		 M110.591,166.736H74.987V63.68h35.604V166.736z"/>
	<path fill="#00A7CF" d="M181.18,123.968h-13.602v-11.922c0-2.351-1.902-4.199-4.198-4.199c-2.351,0-4.198,1.848-4.198,4.199v11.922
		h-13.606c-4.646,0-8.396,3.753-8.396,8.397v69.976c0,4.587,3.75,8.396,8.396,8.396h13.606v11.923c0,2.351,1.848,4.198,4.198,4.198
		c2.296,0,4.198-1.848,4.198-4.198v-11.923h13.602c4.646,0,8.396-3.81,8.396-8.396v-69.976
		C189.576,127.721,185.826,123.968,181.18,123.968z M181.18,202.341h-35.604v-69.976h35.604V202.341z"/>
	<path fill="#00A7CF" d="M244.604,22.368h-13.602V10.445c0-2.296-1.907-4.198-4.198-4.198c-2.296,0-4.198,1.902-4.198,4.198v11.923
		h-13.606c-4.646,0-8.396,3.808-8.396,8.397v92.87c0,4.644,3.75,8.396,8.396,8.396h13.606v11.92c0,2.352,1.902,4.199,4.198,4.199
		c2.291,0,4.198-1.848,4.198-4.199v-11.92h13.602c4.646,0,8.396-3.752,8.396-8.396v-92.87C253,26.176,249.25,22.368,244.604,22.368z
		 M244.604,123.635h-35.604v-92.87h35.604V123.635z"/>
</g>
</svg>
