<?xml version="1.0" encoding="utf-8"?>
<!-- Generator: Adobe Illustrator 16.0.4, SVG Export Plug-In . SVG Version: 6.00 Build 0)  -->
<!DOCTYPE svg PUBLIC "-//W3C//DTD SVG 1.1//EN" "http://www.w3.org/Graphics/SVG/1.1/DTD/svg11.dtd">
<svg version="1.1" id="Layer_1" xmlns="http://www.w3.org/2000/svg" xmlns:xlink="http://www.w3.org/1999/xlink" x="0px" y="0px"
	 width="256px" height="256px" viewBox="0 0 256 256" enable-background="new 0 0 256 256" xml:space="preserve">
<path fill="#00A7CE" d="M166.454,207.126l-24.287,22.159c-3.894,3.567-9.032,5.308-14.17,5.308c-5.139,0-10.278-1.815-14.178-5.383
	l-24.281-22.084L12.62,136.818h46.471V21.444h134.604v115.375h49.677L166.454,207.126z M243.397,127.207h-40.087V21.04
	c0-5.308-2.698-9.211-8.013-9.211H60.693c-5.314,0-11.217,3.903-11.217,9.211v106.167H12.62c-3.968,0-7.524,2.232-8.963,5.918
	c-1.44,3.705-0.463,7.799,2.466,10.479l83.415,76.411l17.783,16.275c5.546,5.089,12.895,7.881,20.675,7.881
	c7.78,0,15.116-2.811,20.668-7.899l17.789-16.301l83.222-76.299c2.028-1.759,3.324-4.149,3.324-7.054
	C253,131.316,248.705,127.207,243.397,127.207"/>
<path fill="#00A7CE" d="M149.635,73.924H132.81V62.507c0-2.654-2.147-4.807-4.807-4.807c-2.66,0-4.808,2.153-4.808,4.807v11.417
	h-16.832c-2.654,0-4.808,2.154-4.808,4.808v43.267c0,2.654,2.153,4.807,4.808,4.807h38.463v33.648h-33.656v-6.009
	c0-2.654-2.147-4.808-4.807-4.808c-2.654,0-4.808,2.153-4.808,4.808v10.817c0,2.653,2.153,4.807,4.808,4.807h16.832v11.418
	c0,2.654,2.147,4.807,4.808,4.807c2.659,0,4.807-2.152,4.807-4.807v-11.418h16.825c2.66,0,4.808-2.153,4.808-4.807v-43.264
	c0-2.654-2.147-4.807-4.808-4.807h-38.464V83.54h33.656v6.012c0,2.654,2.147,4.807,4.808,4.807s4.808-2.153,4.808-4.807v-10.82
	C154.442,76.078,152.295,73.924,149.635,73.924"/>
</svg>
