<?xml version="1.0" encoding="utf-8"?>
<!-- Generator: Adobe Illustrator 16.0.4, SVG Export Plug-In . SVG Version: 6.00 Build 0)  -->
<!DOCTYPE svg PUBLIC "-//W3C//DTD SVG 1.1//EN" "http://www.w3.org/Graphics/SVG/1.1/DTD/svg11.dtd">
<svg version="1.1" id="Layer_1" xmlns="http://www.w3.org/2000/svg" xmlns:xlink="http://www.w3.org/1999/xlink" x="0px" y="0px"
	 width="256px" height="256px" viewBox="0 0 256 256" enable-background="new 0 0 256 256" xml:space="preserve">
<g>
	<path fill="#00A7CF" d="M148.833,86.333H190.5L185.292,128h-36.459v125H94.797V128H65.5V86.333h29.297V58.338
		c0-18.229,4.557-32.002,13.672-41.341C117.583,7.668,132.771,3,154.042,3H190.5v41.667h-22.136c-8.249,0-13.568,1.302-15.95,3.906
		c-2.39,2.604-3.581,6.947-3.581,13.021V86.333z M176.177,117.583l2.604-20.833h-29.297h-11.067V85.682V61.594
		c0-8.678,1.953-15.188,5.859-19.531c4.771-5.208,12.798-7.812,24.088-7.812h11.719V13.417h-26.041
		c-19.103,0-32.124,3.906-39.063,11.719c-6.51,6.947-9.766,18.015-9.766,33.203v27.995V96.75h-9.766H75.917v20.833h19.531h9.766V128
		v114.583h33.204V128v-10.417h11.067H176.177z"/>
</g>
</svg>
