<?xml version="1.0" encoding="utf-8"?>
<!-- Generator: Adobe Illustrator 16.0.4, SVG Export Plug-In . SVG Version: 6.00 Build 0)  -->
<!DOCTYPE svg PUBLIC "-//W3C//DTD SVG 1.1//EN" "http://www.w3.org/Graphics/SVG/1.1/DTD/svg11.dtd">
<svg version="1.1" id="Layer_1" xmlns="http://www.w3.org/2000/svg" xmlns:xlink="http://www.w3.org/1999/xlink" x="0px" y="0px"
	 width="256px" height="256px" viewBox="0 0 256 256" enable-background="new 0 0 256 256" xml:space="preserve">
<path fill="#00A7CE" d="M107.837,15.004c-26.861,0-48.71,21.786-48.71,48.556c0,26.771,21.849,48.556,48.71,48.556
	c26.861,0,48.709-21.786,48.709-48.556C156.547,36.79,134.698,15.004,107.837,15.004 M107.837,25.757
	c20.967,0,37.958,16.927,37.958,37.803c0,20.883-16.991,37.803-37.958,37.803S69.88,84.442,69.88,63.56
	C69.88,42.684,86.871,25.757,107.837,25.757"/>
<path fill="#00A7CE" d="M215.345,165.712L215.345,165.712c-6.573,0-13.077,1.75-18.789,5.055
	c-17.971,10.375-24.152,33.435-13.771,51.412c6.692,11.606,19.196,18.817,32.609,18.817c6.58,0,13.076-1.75,18.796-5.055
	c17.971-10.36,24.152-33.435,13.777-51.397C241.262,172.923,228.766,165.712,215.345,165.712 M215.345,176.465
	c9.29,0,18.328,4.83,23.312,13.455c7.421,12.854,3.01,29.291-9.843,36.711c-4.235,2.45-8.863,3.612-13.42,3.612
	c-9.29,0-18.321-4.816-23.306-13.44c-7.428-12.867-3.017-29.305,9.843-36.726C206.16,177.641,210.78,176.465,215.345,176.465"/>
<path fill="#00A7CE" d="M156.226,214.1H8.373c-1.659,0-3.241-0.77-4.256-2.086c-1.022-1.316-1.365-3.038-0.938-4.648
	c13.385-51.244,55.431-85.673,104.624-85.673c28.612,0,55.312,11.32,75.186,31.881c2.065,2.142,2.002,5.544-0.126,7.603
	c-2.142,2.059-5.537,2.016-7.603-0.126c-17.838-18.446-41.786-28.604-67.458-28.604c-42.052,0-78.35,28.212-92.253,70.902h140.677
	c2.968,0,5.376,2.407,5.376,5.376C161.602,211.706,159.193,214.1,156.226,214.1"/>
<path fill="#00A7CF" d="M209.556,218.125L209.556,218.125c-1.428,0-2.793-0.566-3.802-1.575l-8.184-8.19c-2.1-2.1-2.1-5.502,0-7.603
	c2.101-2.107,5.503-2.093,7.603,0l4.383,4.39l16.024-16.011c2.107-2.106,5.51-2.093,7.603,0c2.101,2.101,2.101,5.503,0,7.603
	l-19.825,19.812C212.349,217.559,210.983,218.125,209.556,218.125z"/>
</svg>
