<?xml version="1.0" encoding="utf-8"?>
<!-- Generator: Adobe Illustrator 16.0.4, SVG Export Plug-In . SVG Version: 6.00 Build 0)  -->
<!DOCTYPE svg PUBLIC "-//W3C//DTD SVG 1.1//EN" "http://www.w3.org/Graphics/SVG/1.1/DTD/svg11.dtd">
<svg version="1.1" id="Layer_1" xmlns="http://www.w3.org/2000/svg" xmlns:xlink="http://www.w3.org/1999/xlink" x="0px" y="0px"
	 width="256px" height="256px" viewBox="0 0 256 256" enable-background="new 0 0 256 256" xml:space="preserve">
<path fill="#00A7CE" d="M232.167,49.875h-62.5V39.458c0-11.455-9.373-20.833-20.834-20.833h-41.667
	c-11.454,0-20.833,9.379-20.833,20.833v10.417h-62.5C12.379,49.875,3,59.254,3,70.708v52.083v10.417v83.334
	c0,11.461,9.379,20.833,20.833,20.833h208.333c11.461,0,20.833-9.372,20.833-20.833v-83.334v-10.417V70.708
	C253,59.254,243.628,49.875,232.167,49.875z M96.75,39.458c0-5.737,4.673-10.417,10.417-10.417h41.667
	c5.737,0,10.417,4.68,10.417,10.417v10.417h-62.5V39.458z M242.583,216.542c0,5.737-4.679,10.416-10.416,10.416H23.833
	c-5.744,0-10.417-4.679-10.417-10.416v-83.334h85.232c-1.16,3.256-1.817,6.755-1.817,10.417c0,17.253,13.991,31.25,31.25,31.25
	s31.25-13.997,31.25-31.25c0-3.662-0.664-7.161-1.817-10.417h85.069V216.542z M148.915,143.625c0,11.488-9.353,20.833-20.833,20.833
	c-11.488,0-20.833-9.345-20.833-20.833c0-3.812,1.099-7.338,2.896-10.417h35.868C147.803,136.287,148.915,139.813,148.915,143.625z
	 M13.417,122.792V70.708c0-5.737,4.673-10.417,10.417-10.417h208.333c5.737,0,10.416,4.68,10.416,10.417v52.083H13.417z"/>
</svg>
