<?xml version="1.0" encoding="utf-8"?>
<!-- Generator: Adobe Illustrator 16.0.4, SVG Export Plug-In . SVG Version: 6.00 Build 0)  -->
<!DOCTYPE svg PUBLIC "-//W3C//DTD SVG 1.1//EN" "http://www.w3.org/Graphics/SVG/1.1/DTD/svg11.dtd">
<svg version="1.1" id="Layer_1" xmlns="http://www.w3.org/2000/svg" xmlns:xlink="http://www.w3.org/1999/xlink" x="0px" y="0px"
	 width="256px" height="256px" viewBox="0 0 256 256" enable-background="new 0 0 256 256" xml:space="preserve">
<path fill="#00A7CF" d="M128,253C59.074,253,3,196.922,3,128C3,59.074,59.074,3,128,3c68.922,0,125,56.074,125,125
	C253,196.922,196.922,253,128,253z M128,13.417C64.818,13.417,13.417,64.818,13.417,128c0,63.178,51.402,114.583,114.583,114.583
	c63.178,0,114.583-51.405,114.583-114.583C242.583,64.818,191.178,13.417,128,13.417z"/>
<path fill="#00A7CF" d="M103.118,171.986c-1.38,0-2.706-0.55-3.683-1.526l-33.39-33.393c-2.035-2.035-2.035-5.331,0-7.365
	s5.331-2.034,7.365,0l29.708,29.711l77.121-77.128c2.034-2.035,5.33-2.035,7.365,0c2.034,2.035,2.034,5.331,0,7.365L106.8,170.46
	C105.824,171.437,104.498,171.986,103.118,171.986z"/>
</svg>
