<?xml version="1.0" encoding="utf-8"?>
<!-- Generator: Adobe Illustrator 16.0.4, SVG Export Plug-In . SVG Version: 6.00 Build 0)  -->
<!DOCTYPE svg PUBLIC "-//W3C//DTD SVG 1.1//EN" "http://www.w3.org/Graphics/SVG/1.1/DTD/svg11.dtd">
<svg version="1.1" id="Layer_1" xmlns="http://www.w3.org/2000/svg" xmlns:xlink="http://www.w3.org/1999/xlink" x="0px" y="0px"
	 width="256px" height="256px" viewBox="0 0 256 256" enable-background="new 0 0 256 256" xml:space="preserve">
<path fill="#00A7CE" d="M206.974,113.187c-8.135,0-15.87,2.588-22.291,7.244c-2.045-31.043-13.367-54.928-20.383-66.964
	c-5.278-9.043-11.071-16.613-16.807-22.217c42.856,8.466,76.128,44.268,80.847,88.49C222.102,115.5,214.709,113.187,206.974,113.187
	 M154.325,113.187c-8.043,0-15.687,2.531-22.062,7.083V30.672c13.482,6.867,40.149,41.435,43.6,89.227
	C169.59,115.586,162.141,113.187,154.325,113.187 M101.674,113.187c-7.815,0-15.267,2.394-21.54,6.707
	c3.433-47.49,29.794-81.932,43.354-89.096v89.296C117.158,115.655,109.606,113.187,101.674,113.187 M49.026,113.187
	c-7.741,0-15.133,2.313-21.363,6.547c4.707-44.217,37.981-80.018,80.843-88.484C102.774,36.854,96.97,44.423,91.7,53.466
	c-7.021,12.037-18.338,35.921-20.386,66.964C64.89,115.775,57.158,113.187,49.026,113.187 M132.263,20.652V7.387
	c0-2.428-1.965-4.387-4.387-4.387s-4.387,1.959-4.387,4.387v13.271c-58.224,2.388-105,50.603-105.174,109.559
	c-0.005,1.862,1.163,3.536,2.925,4.153c0.479,0.171,0.971,0.251,1.462,0.251c1.305,0,2.573-0.583,3.422-1.646
	c5.616-7.003,13.964-11.014,22.902-11.014c8.938,0,17.281,4.01,22.902,11.014c1.668,2.08,5.176,2.08,6.844,0
	c5.615-7.003,13.964-11.014,22.902-11.014c8.395,0,16.233,3.576,21.814,9.803v90.604c0,12.054-9.84,21.857-21.937,21.857
	c-12.091,0-21.937-9.872-21.937-22.018c0-2.422-1.965-4.387-4.387-4.387s-4.387,1.965-4.387,4.387
	c0,16.979,13.776,30.792,30.711,30.792s30.711-13.733,30.711-30.632v-90.329c5.599-6.398,13.551-10.077,22.062-10.077
	c8.935,0,17.275,4.01,22.896,11.014c1.668,2.08,5.176,2.08,6.844,0c5.622-7.003,13.962-11.014,22.908-11.014
	c8.924,0,17.275,4.01,22.908,11.014c1.165,1.463,3.131,2.022,4.879,1.395c1.759-0.629,2.937-2.291,2.925-4.153
	C237.514,71.176,190.602,22.909,132.263,20.652"/>
</svg>
