<?xml version="1.0" encoding="utf-8"?>
<!-- Generator: Adobe Illustrator 16.0.4, SVG Export Plug-In . SVG Version: 6.00 Build 0)  -->
<!DOCTYPE svg PUBLIC "-//W3C//DTD SVG 1.1//EN" "http://www.w3.org/Graphics/SVG/1.1/DTD/svg11.dtd">
<svg version="1.1" id="Layer_1" xmlns="http://www.w3.org/2000/svg" xmlns:xlink="http://www.w3.org/1999/xlink" x="0px" y="0px"
	 width="256px" height="256px" viewBox="0 0 256 256" enable-background="new 0 0 256 256" xml:space="preserve">
<g>
	<path fill="#00A7CE" d="M173.451,150.728h-22.726c-6.28,0-11.353,5.079-11.353,11.373v79.528c0,6.28,5.072,11.373,11.353,11.373
		h22.726c6.286,0,11.372-5.093,11.372-11.373v-79.528C184.823,155.807,179.737,150.728,173.451,150.728z M173.451,241.629h-22.726
		v-79.528h22.726V241.629z"/>
	<path fill="#00A7CE" d="M37.088,173.453H14.362C8.093,173.453,3,178.532,3,184.825v56.804c0,6.28,5.093,11.373,11.362,11.373
		h22.726c6.287,0,11.362-5.093,11.362-11.373v-56.804C48.451,178.532,43.375,173.453,37.088,173.453z M37.088,241.629H14.362
		v-56.804h22.726V241.629z"/>
	<path fill="#00A7CE" d="M105.274,127.998H82.549c-6.28,0-11.363,5.087-11.363,11.377v102.254c0,6.28,5.083,11.373,11.363,11.373
		h22.725c6.277,0,11.363-5.093,11.363-11.373V139.375C116.638,133.085,111.551,127.998,105.274,127.998z M105.274,241.629H82.549
		V139.375h22.725V241.629z"/>
	<path fill="#00A7CE" d="M241.627,82.547h-22.726c-6.259,0-11.353,5.076-11.353,11.362v147.719c0,6.28,5.094,11.373,11.353,11.373
		h22.726c6.287,0,11.373-5.093,11.373-11.373V93.91C253,87.623,247.914,82.547,241.627,82.547z M241.627,241.629h-22.726V93.91
		h22.726V241.629z"/>
	<path fill="#00A7CE" d="M217.02,44.177c3.733,2.686,8.31,4.271,13.256,4.271c12.546,0,22.725-10.162,22.725-22.725
		c0-12.557-10.179-22.726-22.725-22.726c-12.54,0-22.727,10.169-22.727,22.726c0,3.48,0.784,6.774,2.182,9.721l-34.36,28.654
		c-3.735-2.694-8.317-4.287-13.271-4.287c-5.827,0-11.137,2.193-15.157,5.796l-31.567-21.042c0.815-2.342,1.264-4.857,1.264-7.479
		c0-12.556-10.17-22.726-22.726-22.726c-12.549,0-22.725,10.17-22.725,22.726c0,3.483,0.785,6.78,2.183,9.729L39,75.467
		c-3.734-2.691-8.316-4.282-13.274-4.282C13.176,71.185,3,81.354,3,93.91c0,12.563,10.176,22.726,22.726,22.726
		c12.556,0,22.725-10.163,22.725-22.726c0-3.479-0.784-6.774-2.18-9.721l34.378-28.65c3.733,2.687,8.312,4.274,13.263,4.274
		c5.822,0,11.128-2.188,15.148-5.783l31.576,21.043c-0.814,2.342-1.263,4.856-1.263,7.476c0,12.563,10.166,22.726,22.726,22.726
		c12.546,0,22.725-10.163,22.725-22.726c0-3.479-0.784-6.773-2.18-9.72L217.02,44.177z M230.275,14.36
		c6.272,0,11.352,5.101,11.352,11.364c0,6.273-5.079,11.362-11.352,11.362c-6.268,0-11.374-5.089-11.374-11.362
		C218.901,19.461,224.008,14.36,230.275,14.36z M25.726,105.273c-6.256,0-11.363-5.1-11.363-11.363
		c0-6.273,5.107-11.362,11.363-11.362c6.273,0,11.363,5.089,11.363,11.362C37.088,100.173,31.999,105.273,25.726,105.273z
		 M93.912,48.449c-6.266,0-11.362-5.089-11.362-11.362c0-6.263,5.096-11.362,11.362-11.362c6.263,0,11.363,5.1,11.363,11.362
		C105.274,43.359,100.175,48.449,93.912,48.449z M162.099,93.91c-6.267,0-11.373-5.1-11.373-11.362
		c0-6.273,5.106-11.362,11.373-11.362c6.252,0,11.353,5.089,11.353,11.362C173.451,88.81,168.351,93.91,162.099,93.91z"/>
</g>
</svg>
