<?xml version="1.0" encoding="utf-8"?>
<!-- Generator: Adobe Illustrator 16.0.4, SVG Export Plug-In . SVG Version: 6.00 Build 0)  -->
<!DOCTYPE svg PUBLIC "-//W3C//DTD SVG 1.1//EN" "http://www.w3.org/Graphics/SVG/1.1/DTD/svg11.dtd">
<svg version="1.1" id="Layer_1" xmlns="http://www.w3.org/2000/svg" xmlns:xlink="http://www.w3.org/1999/xlink" x="0px" y="0px"
	 width="256px" height="256px" viewBox="0 0 256 256" enable-background="new 0 0 256 256" xml:space="preserve">
<g>
	<path fill="#00A7CF" d="M32.297,11.47c6.069,0,10.763,1.846,14.336,5.632c3.71,3.948,5.514,8.918,5.514,15.195
		c0,5.524-1.903,10.114-5.819,14.031c-3.917,3.916-8.826,5.819-15.008,5.819c-6.17,0-10.725-1.789-14.348-5.644
		c-3.703-3.922-5.502-8.569-5.502-14.206c0-6.182,1.904-11.09,5.821-15.007C21.207,13.374,26.115,11.47,32.297,11.47
		 M191.477,90.572c15.89,0,28.388,5.177,38.201,15.82c9.855,10.711,14.853,27.182,14.853,48.953v89.186H207.76v-83.326
		c0-38.809-22.438-44.604-35.814-44.604c-16.435,0-28.562,8.494-35.091,24.566c-1.824,3.856-2.676,9.312-2.676,17.108v86.256H97.408
		V94.479h36.771v14.967c0,3.682,2.378,6.942,5.885,8.066c0.852,0.273,1.723,0.405,2.584,0.405c2.684,0,5.272-1.279,6.893-3.547
		C160.979,98.356,174.697,90.572,191.477,90.572 M48.241,94.479V244.53H11.47V94.479H48.241 M32.297,3
		c-8.468,0-15.47,2.775-20.996,8.301C5.763,16.839,3,23.842,3,32.297c0,7.812,2.596,14.494,7.812,20.02
		c5.205,5.538,12.041,8.3,20.508,8.3c8.455,0,15.458-2.763,20.997-8.3c5.525-5.526,8.3-12.208,8.3-20.02
		c0-8.455-2.608-15.458-7.812-20.996C47.588,5.775,40.752,3,32.297,3L32.297,3z M191.477,82.102
		c-19.531,0-35.812,9.123-48.828,27.344V86.008h-53.71V253h53.71v-94.726c0-6.503,0.644-11.068,1.953-13.673
		c5.204-13.021,14.315-19.531,27.344-19.531c18.222,0,27.345,12.053,27.345,36.134V253H253v-97.655
		c0-24.081-5.704-42.314-17.089-54.688C224.513,88.295,209.697,82.102,191.477,82.102L191.477,82.102z M56.711,86.008H3V253h53.711
		V86.008L56.711,86.008z"/>
</g>
</svg>
