<?xml version="1.0" encoding="utf-8"?>
<!-- Generator: Adobe Illustrator 16.0.4, SVG Export Plug-In . SVG Version: 6.00 Build 0)  -->
<!DOCTYPE svg PUBLIC "-//W3C//DTD SVG 1.1//EN" "http://www.w3.org/Graphics/SVG/1.1/DTD/svg11.dtd">
<svg version="1.1" id="Layer_1" xmlns="http://www.w3.org/2000/svg" xmlns:xlink="http://www.w3.org/1999/xlink" x="0px" y="0px"
	 width="256px" height="256px" viewBox="0 0 256 256" enable-background="new 0 0 256 256" xml:space="preserve">
<path fill="#00A7CE" d="M240.59,242.69c-9.953,0-18.041-8.094-18.041-18.041c0-2.859-2.309-5.154-5.154-5.154
	s-5.154,2.295-5.154,5.154c0,9.947-8.095,18.041-18.041,18.041c-9.954,0-18.042-8.094-18.042-18.041
	c0-2.859-2.309-5.154-5.154-5.154s-5.154,2.295-5.154,5.154c0,9.947-8.095,18.041-18.042,18.041
	c-9.953,0-18.037-8.094-18.037-18.041c0-2.859-2.309-5.154-5.155-5.154s-5.155,2.295-5.155,5.154
	c0,9.947-8.094,18.041-18.041,18.041c-9.954,0-18.041-8.094-18.041-18.041c0-2.859-2.309-5.154-5.155-5.154
	s-5.155,2.295-5.155,5.154c0,9.947-8.094,18.041-18.041,18.041c-4.819,0-9.356-1.879-12.752-5.288
	c-3.41-3.41-5.289-7.934-5.289-12.753c0-2.859-2.309-5.154-5.155-5.154s-5.155,2.295-5.155,5.154
	c0,9.947-8.087,18.041-18.041,18.041c-2.846,0-5.155,2.296-5.155,5.155c0,2.846,2.309,5.154,5.155,5.154
	c9.578,0,18.048-4.766,23.182-12.055c0.94,1.329,1.994,2.578,3.162,3.745c5.355,5.356,12.477,8.31,20.048,8.31
	c9.578,0,18.061-4.779,23.196-12.067C83.357,248.221,91.841,253,101.419,253s18.061-4.779,23.196-12.067
	c5.134,7.288,13.615,12.067,23.192,12.067c9.578,0,18.062-4.779,23.196-12.067c5.135,7.288,13.618,12.067,23.196,12.067
	c9.577,0,18.061-4.779,23.195-12.067C222.529,248.221,231.013,253,240.59,253c2.847,0,5.155-2.309,5.155-5.154
	C245.745,244.986,243.437,242.69,240.59,242.69 M37.409,211.213c0.839,1.96,2.738,3.127,4.738,3.127
	c0.671,0,1.369-0.134,2.027-0.416c2.611-1.127,3.833-4.161,2.711-6.765l-12.39-28.888l187.1,0.336l-23.558,27.195
	c-1.866,2.161-1.631,5.41,0.517,7.275c2.161,1.866,5.409,1.638,7.275-0.523l30.928-35.706c1.315-1.53,1.624-3.679,0.799-5.518
	c-0.839-1.825-2.671-2.362-4.685-2.362L26.69,169.237h-0.007c-1.738,0-3.356,0.229-4.309,1.665c-0.953,1.449-1.121,2.953-0.429,4.55
	L37.409,211.213z M50.148,148.619h36.619V62.876L50.148,148.619z M37.812,155.908c-0.946-1.464-1.087-3.651-0.355-5.235
	L89.002,37.11c0.994-2.208,2.517-3.517,4.893-2.987c2.369,0.517,3.181,2.537,3.181,4.96v113.401c0,2.847-0.543,6.443-3.389,6.443
	H42.141C40.389,158.928,38.758,157.385,37.812,155.908 M117.695,148.619h70.202L117.695,27.566V148.619z M107.386,152.484V8.155
	c0-2.335,2.457-4.383,4.711-4.98c2.255-0.604,5.081,0.389,6.242,2.423l82.243,143.544c0.771,0.899,1.342,2.711,1.342,3.973
	c0,2.859-2.201,5.812-5.047,5.812h-0.101h-82.471C111.459,158.928,107.386,155.331,107.386,152.484 M165.774,21.096
	c0.712-0.711,1.537-1.275,2.45-1.651c0.959-0.409,1.973-0.61,3.014-0.61c4.269,0,7.731,3.47,7.731,7.732
	c0,2.846,2.309,5.154,5.154,5.154c2.853,0,5.155-2.309,5.155-5.154c0-4.262,3.47-7.732,7.731-7.732c1.047,0,2.061,0.201,3,0.604
	c0.927,0.382,1.759,0.946,2.471,1.658c2.013,2.007,5.281,2.007,7.295-0.007s2.007-5.275-0.013-7.289
	c-1.651-1.651-3.584-2.946-5.739-3.866c-2.222-0.933-4.591-1.41-7.014-1.41c-5.054,0-9.604,2.101-12.887,5.457
	c-3.275-3.356-7.832-5.457-12.886-5.457c-2.43,0-4.786,0.477-7.027,1.417c-2.142,0.913-4.067,2.208-5.726,3.859
	c-2.014,2.014-2.021,5.275-0.007,7.289C160.485,23.109,163.754,23.109,165.774,21.096 M251.014,52.017
	c-2.014,2.021-5.282,2.014-7.296,0.007c-0.711-0.711-1.544-1.275-2.47-1.658c-0.939-0.403-1.953-0.604-3-0.604
	c-4.262,0-7.732,3.47-7.732,7.732c0,2.846-2.302,5.154-5.154,5.154c-2.846,0-5.154-2.309-5.154-5.154
	c0-4.262-3.464-7.732-7.732-7.732c-1.04,0-2.054,0.201-3.014,0.61c-0.912,0.376-1.738,0.94-2.449,1.651
	c-2.021,2.007-5.289,2.014-7.296-0.007c-2.014-2.014-2.007-5.275,0.007-7.289c1.657-1.651,3.584-2.946,5.725-3.859
	c2.242-0.94,4.598-1.417,7.027-1.417c5.054,0,9.611,2.101,12.887,5.457c3.282-3.356,7.833-5.457,12.887-5.457
	c2.423,0,4.792,0.477,7.014,1.41c2.154,0.919,4.088,2.215,5.738,3.866C253.021,46.741,253.027,50.003,251.014,52.017"/>
</svg>
