<?xml version="1.0" encoding="utf-8"?>
<!-- Generator: Adobe Illustrator 16.0.4, SVG Export Plug-In . SVG Version: 6.00 Build 0)  -->
<!DOCTYPE svg PUBLIC "-//W3C//DTD SVG 1.1//EN" "http://www.w3.org/Graphics/SVG/1.1/DTD/svg11.dtd">
<svg version="1.1" id="Layer_1" xmlns="http://www.w3.org/2000/svg" xmlns:xlink="http://www.w3.org/1999/xlink" x="0px" y="0px"
	 width="200px" height="40px" viewBox="0 0 200 40" enable-background="new 0 0 200 40" xml:space="preserve">
<path fill="#FFFFFF" d="M66.585,26.592c-0.043,1.49-0.338,2.695-0.888,3.613s-1.271,1.375-2.162,1.375
	c-0.737,0-1.288-0.275-1.649-0.828c-0.361-0.552-0.753-1.682-1.17-3.389c-1.446,2.812-3.814,4.217-7.101,4.217
	c-2.242,0-4.024-0.805-5.346-2.416c-1.323-1.611-1.984-3.92-1.984-6.922c0-2.955,0.724-5.252,2.172-6.896
	c1.448-1.643,3.188-2.465,5.22-2.465c1.436,0,2.611,0.469,3.531,1.406c0.919,0.938,1.733,2.465,2.443,4.584l1.213-5.214l0.026-0.114
	c0.09-0.281,0.344-0.488,0.652-0.508h0.09h1.953h0.09c0.386,0.024,0.689,0.338,0.689,0.727c0,0.046-0.005,0.093-0.014,0.138
	l-0.006,0.026l-2.021,8.393c-0.417,1.695-0.703,2.734-0.856,3.119c0.558,2.361,1.364,3.543,2.423,3.543
	c1.254,0,1.9-0.796,1.942-2.389H66.585z M59.087,20.949c-0.653-2.066-1.385-3.681-2.192-4.842s-1.776-1.744-2.902-1.744
	c-2.549,0-3.823,2.749-3.823,8.243c0,5.213,1.219,7.819,3.655,7.819c2.116,0,3.683-2.299,4.699-6.895L59.087,20.949z
	 M100.316,13.307c-0.766,0-0.979,0.213-0.979,0.977v9.648c0,5.015,2.467,7.65,6.844,7.65c3.57,0,5.992-1.744,6.332-3.656v1.361
	c0,5.992-3.867,7.055-7.268,7.055c-2.209,0-3.57-0.426-4.802-0.85c-0.468-0.171-0.809-0.171-0.809,0.553v0.808
	c0,0.552,0.213,0.764,0.766,0.935c0.978,0.426,2.974,0.807,5.015,0.807c3.826,0,9.777-1.275,9.777-9.689V14.283
	c0-0.764-0.17-0.977-0.938-0.977h-0.764c-0.766,0-0.979,0.213-0.979,0.977v9.648c-0.297,3.104-1.998,5.27-5.439,5.27
	c-3.23,0-5.014-1.869-5.014-5.609v-9.309c0-0.764-0.215-0.977-0.979-0.977H100.316z M94.128,26.821V2.383
	c0-0.764-0.17-0.977-0.978-0.977h-0.724c-0.765,0-0.977,0.213-0.977,0.977v24.736c0,3.061,0.808,4.336,3.443,4.336
	c0.595,0,1.062-0.086,1.571-0.256c0.511-0.128,0.639-0.298,0.639-0.85v-0.809c0-0.553-0.128-0.637-0.469-0.553
	c-0.297,0.044-0.552,0.128-1.146,0.128C94.425,29.116,94.128,28.267,94.128,26.821 M80.757,24.356c0,5.228,1.913,7.013,5.482,7.013
	c0.553,0,1.403-0.041,1.998-0.255c0.255-0.085,0.553-0.213,0.553-0.808v-0.893c0-0.468-0.213-0.596-0.553-0.553
	c-0.595,0.17-0.979,0.255-1.572,0.255c-1.998,0-3.188-0.808-3.188-4.25v-9.392h3.654c0.681,0,0.851-0.213,0.851-0.85v-0.469
	c0-0.68-0.17-0.85-0.851-0.85h-3.654V9.438c0-0.808-0.255-0.978-1.105-0.978h-0.638c-0.766,0-0.978,0.17-0.978,0.978V24.356z
	 M77.327,12.924c-0.382-0.043-0.85-0.043-1.189-0.043c-4.719,0-7.522,2.508-7.522,8.033v9.307c0,0.724,0.212,0.937,0.977,0.937
	h0.723c0.808,0,0.978-0.213,0.978-0.978v-9.266c0-3.697,1.743-5.609,4.846-5.609c0.34,0,0.85,0.041,1.189,0.041
	c0.553,0,0.722-0.17,0.722-0.68v-0.892C78.049,13.18,77.837,12.924,77.327,12.924 M42.732,20.488c0-5.99-3.485-7.607-6.715-7.607
	c-2.551,0-4.889,1.063-5.95,3.826c-1.148-2.848-3.485-3.826-5.951-3.826c-3.23,0-6.714,1.617-6.714,7.607v9.691
	c0,0.765,0.169,0.978,0.977,0.978h0.723c0.808,0,0.978-0.213,0.978-0.978v-9.818c0-3.91,2.21-5.143,4.292-5.143
	c2.125,0,4.336,1.232,4.336,5.143v9.818c0,0.765,0.169,0.978,0.978,0.978h0.722c0.766,0,0.978-0.213,0.978-0.978v-9.818
	c0-3.91,2.254-5.143,4.335-5.143c2.125,0,4.294,1.232,4.294,5.143v9.818c0,0.765,0.212,0.978,0.978,0.978h0.765
	c0.766,0,0.978-0.213,0.978-0.978V20.488z M14.176,26.269c0,4.081-2.89,5.313-7.098,5.313c-1.827,0-3.357-0.129-5.397-0.681
	c-0.596-0.127-0.765-0.297-0.765-0.808v-0.936c0-0.636,0.169-0.722,0.808-0.594c1.869,0.552,3.527,0.723,5.143,0.723
	c2.89,0,4.76-0.765,4.76-3.019c0-2.38-2.55-2.806-4.93-3.313c-2.805-0.596-5.611-1.531-5.611-5.101c0-4.293,3.571-4.974,6.844-4.974
	c1.657,0,3.569,0.17,4.845,0.553c0.553,0.171,0.723,0.341,0.723,0.723v0.979c0,0.595-0.213,0.679-0.807,0.552
	c-1.531-0.468-3.273-0.595-4.719-0.595c-2.082,0-4.335,0.297-4.335,2.635c0,2.082,2.125,2.465,4.718,3.061
	C11.158,21.424,14.176,22.401,14.176,26.269"/>
<path fill="#FFFFFF" d="M199.084,26.486v0.24c0,0.138-0.047,0.184-0.197,0.184c-0.09,0-0.227-0.013-0.318-0.013
	c-0.836,0-1.305,0.515-1.305,1.51V30.9c0,0.206-0.045,0.264-0.262,0.264h-0.195c-0.205,0-0.264-0.058-0.264-0.252v-2.505
	c0-1.487,0.756-2.161,2.025-2.161c0.092,0,0.217,0,0.318,0.012C199.025,26.258,199.084,26.326,199.084,26.486 M193.027,30.648
	c-1.119,0-1.793-0.754-1.793-1.875s0.674-1.898,1.793-1.898c1.123,0,1.809,0.777,1.809,1.898S194.15,30.648,193.027,30.648
	 M193.027,26.246c-1.553,0-2.537,1.041-2.537,2.527s0.984,2.504,2.537,2.504c1.557,0,2.551-1.018,2.551-2.504
	S194.596,26.246,193.027,26.246 M190.152,30.694v0.241c0,0.158-0.078,0.193-0.146,0.217c-0.16,0.057-0.389,0.068-0.539,0.068
	c-0.959,0-1.475-0.481-1.475-1.887v-4.015c0-0.217,0.059-0.263,0.264-0.263h0.172c0.229,0,0.297,0.046,0.297,0.263v1.042h0.982
	c0.184,0,0.229,0.046,0.229,0.229v0.125c0,0.172-0.045,0.229-0.229,0.229h-0.982v2.527c0,0.927,0.32,1.144,0.857,1.144
	c0.16,0,0.264-0.022,0.424-0.069C190.098,30.535,190.152,30.568,190.152,30.694 M187.027,29.849c0,1.098-0.777,1.429-1.908,1.429
	c-0.492,0-0.904-0.033-1.453-0.184c-0.16-0.033-0.205-0.08-0.205-0.217v-0.252c0-0.17,0.045-0.192,0.217-0.158
	c0.502,0.147,0.949,0.193,1.383,0.193c0.779,0,1.281-0.205,1.281-0.812c0-0.64-0.688-0.755-1.326-0.892
	c-0.756-0.162-1.51-0.412-1.51-1.373c0-1.156,0.959-1.338,1.84-1.338c0.447,0,0.961,0.047,1.305,0.149
	c0.148,0.045,0.195,0.091,0.195,0.194v0.263c0,0.159-0.059,0.183-0.219,0.147c-0.412-0.125-0.879-0.158-1.27-0.158
	c-0.561,0-1.166,0.078-1.166,0.709c0,0.559,0.572,0.662,1.27,0.822C186.215,28.545,187.027,28.809,187.027,29.849 M179.18,28.728
	c0-1.177,0.549-1.921,1.6-1.921c0.596,0,1.133,0.229,1.133,0.927c0,0.743-0.631,1.006-1.613,1.006h-1.119V28.728z M182.461,30.362
	c-0.355,0.127-0.846,0.31-1.465,0.31c-0.891,0-1.611-0.379-1.783-1.418h1.133c1.338,0,2.264-0.39,2.264-1.521
	c0-1.088-0.881-1.487-1.863-1.487c-1.602,0-2.252,1.086-2.252,2.516c0,1.658,0.891,2.516,2.457,2.516
	c0.641,0,1.178-0.137,1.566-0.297c0.16-0.068,0.184-0.126,0.184-0.273v-0.172C182.701,30.328,182.598,30.316,182.461,30.362
	 M178.109,26.602l-1.715,4.322c-0.08,0.193-0.148,0.24-0.354,0.24h-0.275c-0.217,0-0.285-0.047-0.365-0.24l-1.715-4.322
	c-0.082-0.196-0.047-0.241,0.16-0.241h0.24c0.205,0,0.273,0.058,0.332,0.252l1.486,3.877l1.465-3.877
	c0.055-0.194,0.123-0.252,0.33-0.252h0.252C178.156,26.36,178.189,26.405,178.109,26.602 M173.062,28.568V30.9
	c0,0.206-0.045,0.264-0.262,0.264h-0.195c-0.205,0-0.262-0.058-0.262-0.264v-2.344c0-1.053-0.482-1.659-1.408-1.659
	c-0.936,0-1.406,0.606-1.406,1.659V30.9c0,0.206-0.045,0.264-0.262,0.264h-0.195c-0.217,0-0.264-0.058-0.264-0.264v-2.332
	c0-1.452,0.699-2.322,2.127-2.322C172.365,26.246,173.062,27.116,173.062,28.568 M166.508,24.92c0-0.285,0.205-0.48,0.479-0.48
	c0.25,0,0.457,0.195,0.457,0.48c0,0.297-0.207,0.48-0.457,0.48C166.713,25.4,166.508,25.217,166.508,24.92 M168.131,30.729v0.218
	c0,0.147-0.035,0.194-0.172,0.229c-0.139,0.045-0.264,0.068-0.424,0.068c-0.709,0-0.926-0.344-0.926-1.168v-3.451
	c0-0.207,0.059-0.264,0.264-0.264h0.193c0.219,0,0.264,0.057,0.264,0.264v3.373c0,0.387,0.08,0.616,0.365,0.616
	c0.16,0,0.229-0.022,0.309-0.034C168.096,30.558,168.131,30.58,168.131,30.729 M162.906,28.568V30.9
	c0,0.206-0.045,0.264-0.264,0.264h-0.193c-0.205,0-0.264-0.058-0.264-0.264v-2.344c0-1.053-0.479-1.659-1.406-1.659
	c-0.938,0-1.406,0.606-1.406,1.659V30.9c0,0.206-0.045,0.264-0.264,0.264h-0.193c-0.217,0-0.264-0.058-0.264-0.264v-2.332
	c0-1.452,0.697-2.322,2.127-2.322S162.906,27.116,162.906,28.568 M154.705,30.648c-1.145,0-1.773-0.8-1.773-1.887
	c0-1.086,0.641-1.887,1.773-1.887c1.143,0,1.816,0.801,1.816,1.887C156.521,29.849,155.836,30.648,154.705,30.648 M157.838,30.568
	c-0.047,0.023-0.127,0.046-0.207,0.046c-0.309,0-0.377-0.217-0.377-0.64v-1.189c0-1.545-1.006-2.539-2.562-2.539
	c-1.51,0-2.504,0.994-2.504,2.516c0,1.463,0.938,2.516,2.436,2.516c0.881,0,1.521-0.365,1.898-0.973
	c0.012,0.699,0.332,0.916,0.824,0.916c0.262,0,0.365-0.012,0.525-0.069c0.113-0.034,0.172-0.103,0.172-0.205v-0.263
	C158.043,30.533,157.998,30.533,157.838,30.568 M145.455,28.728c0-1.177,0.549-1.921,1.6-1.921c0.596,0,1.133,0.229,1.133,0.927
	c0,0.743-0.629,1.006-1.611,1.006h-1.121V28.728z M148.736,30.362c-0.354,0.127-0.846,0.31-1.465,0.31
	c-0.891,0-1.611-0.379-1.783-1.418h1.133c1.34,0,2.266-0.39,2.266-1.521c0-1.088-0.883-1.487-1.865-1.487
	c-1.602,0-2.252,1.086-2.252,2.516c0,1.658,0.891,2.516,2.457,2.516c0.643,0,1.178-0.137,1.568-0.297
	c0.158-0.068,0.182-0.126,0.182-0.273v-0.172C148.977,30.328,148.875,30.316,148.736,30.362 M141.506,26.875
	c1.131,0,1.771,0.801,1.771,1.887s-0.65,1.888-1.83,1.888c-1.154,0-1.76-0.802-1.76-1.888S140.375,26.875,141.506,26.875
	 M141.459,24.267c1.656,0,4.234-0.552,4.234-4.198v-6.335c0-0.331-0.072-0.424-0.404-0.424h-0.33c-0.332,0-0.424,0.093-0.424,0.424
	v4.181c-0.131,1.344-0.865,2.283-2.357,2.283c-1.4,0-2.174-0.811-2.174-2.431v-4.033c0-0.331-0.092-0.424-0.422-0.424h-0.332
	c-0.332,0-0.424,0.093-0.424,0.424v4.181c0,2.172,1.066,3.314,2.965,3.314c1.547,0,2.596-0.755,2.744-1.584v0.589
	c0,2.597-1.678,3.058-3.15,3.058c-0.957,0-1.545-0.185-2.082-0.369c-0.201-0.072-0.348-0.072-0.348,0.24v0.35
	c0,0.002,0.002,0.002,0.002,0.005v5.2c0,1.486,0.914,2.561,2.479,2.561c1.568,0,2.586-0.995,2.586-2.516
	c0-1.463-0.938-2.516-2.449-2.516c-0.891,0-1.529,0.366-1.896,0.973v-3.172C140.139,24.172,140.795,24.267,141.459,24.267
	 M135.318,28.568V30.9c0,0.206-0.045,0.264-0.262,0.264h-0.195c-0.205,0-0.262-0.058-0.262-0.264v-2.344
	c0-1.053-0.48-1.659-1.408-1.659c-0.938,0-1.404,0.606-1.404,1.659V30.9c0,0.206-0.047,0.264-0.264,0.264h-0.195
	c-0.217,0-0.264-0.058-0.264-0.264v-2.332c0-1.452,0.699-2.322,2.127-2.322C134.621,26.246,135.318,27.116,135.318,28.568
	 M127.115,30.648c-1.143,0-1.771-0.8-1.771-1.887c0-1.086,0.641-1.887,1.771-1.887c1.145,0,1.818,0.801,1.818,1.887
	C128.934,29.849,128.248,30.648,127.115,30.648 M130.25,30.568c-0.047,0.023-0.127,0.046-0.205,0.046
	c-0.311,0-0.379-0.217-0.379-0.64v-1.189c0-1.545-1.006-2.539-2.562-2.539c-1.508,0-2.504,0.994-2.504,2.516
	c0,1.463,0.938,2.516,2.438,2.516c0.881,0,1.52-0.365,1.896-0.973c0.012,0.699,0.332,0.916,0.824,0.916
	c0.264,0,0.365-0.012,0.527-0.069c0.111-0.034,0.17-0.103,0.17-0.205v-0.263C130.455,30.533,130.41,30.533,130.25,30.568
	 M124.059,30.684v0.148c0,0.205-0.08,0.274-0.229,0.297c-0.309,0.092-0.652,0.148-0.984,0.148c-1.611,0-2.594-0.926-2.594-2.504
	c0-1.602,0.982-2.527,2.549-2.527c0.367,0,0.709,0.057,1.029,0.172c0.148,0.022,0.217,0.092,0.217,0.297v0.138
	c0,0.194-0.08,0.241-0.205,0.206c-0.275-0.104-0.572-0.184-0.938-0.184c-1.236,0-1.887,0.744-1.887,1.887
	c0,1.133,0.627,1.898,1.91,1.898c0.342,0,0.65-0.068,0.902-0.16C124.002,30.467,124.059,30.522,124.059,30.684 M165.621,17.123
	c0-1.898,0.883-3.095,2.576-3.095c0.957,0,1.824,0.368,1.824,1.492c0,1.196-1.014,1.62-2.596,1.62h-1.805V17.123z M171.293,20.309
	v-0.277c0-0.331-0.166-0.349-0.389-0.275c-0.568,0.201-1.361,0.498-2.355,0.498c-1.438,0-2.598-0.609-2.873-2.285h1.824
	c2.152,0,3.645-0.625,3.645-2.448c0-1.75-1.418-2.396-3.002-2.396c-2.578,0-3.627,1.75-3.627,4.053c0,2.67,1.436,4.051,3.959,4.051
	c1.031,0,1.898-0.221,2.523-0.479C171.256,20.639,171.293,20.547,171.293,20.309 M163.281,16.864v3.757
	c0,0.332-0.072,0.424-0.424,0.424h-0.312c-0.332,0-0.422-0.092-0.422-0.424v-3.775c0-1.694-0.775-2.67-2.268-2.67
	c-1.51,0-2.264,0.976-2.264,2.67v3.775c0,0.332-0.074,0.424-0.424,0.424h-0.314c-0.35,0-0.422-0.092-0.422-0.424v-3.757
	c0-2.339,1.123-3.739,3.424-3.739C162.158,13.125,163.281,14.525,163.281,16.864 M151.109,20.215c-1.805,0-2.893-1.215-2.893-3.02
	c0-1.804,1.088-3.057,2.893-3.057s2.908,1.253,2.908,3.057C154.018,19,152.914,20.215,151.109,20.215 M155.217,17.195
	c0-2.395-1.586-4.07-4.107-4.07c-2.506,0-4.09,1.676-4.09,4.07s1.584,4.033,4.09,4.033C153.613,21.229,155.217,19.59,155.217,17.195
	 M137.223,16.864v3.757c0,0.332-0.072,0.424-0.422,0.424h-0.314c-0.332,0-0.424-0.092-0.424-0.424v-3.775
	c0-1.694-0.773-2.67-2.266-2.67c-1.508,0-2.264,0.976-2.264,2.67v3.775c0,0.332-0.074,0.424-0.424,0.424h-0.312
	c-0.352,0-0.424-0.092-0.424-0.424v-3.757c0-2.339,1.125-3.739,3.424-3.739C136.102,13.125,137.223,14.525,137.223,16.864
	 M124.369,20.215c-1.842,0-2.854-1.289-2.854-3.037c0-1.75,1.031-3.039,2.854-3.039c1.844,0,2.93,1.289,2.93,3.039
	C127.299,18.926,126.191,20.215,124.369,20.215 M127.299,19.664c0.018,1.123,0.533,1.473,1.324,1.473
	c0.426,0,0.59-0.018,0.848-0.111c0.184-0.055,0.277-0.165,0.277-0.331v-0.423c0-0.24-0.074-0.24-0.332-0.184
	c-0.074,0.035-0.203,0.072-0.332,0.072c-0.496,0-0.607-0.35-0.607-1.031v-1.916c0-2.485-1.621-4.088-4.125-4.088
	c-2.432,0-4.033,1.603-4.033,4.053c0,2.357,1.51,4.051,3.922,4.051C125.658,21.229,126.689,20.639,127.299,19.664"/>
</svg>
