<?xml version="1.0" encoding="utf-8"?>
<!-- Generator: Adobe Illustrator 16.0.4, SVG Export Plug-In . SVG Version: 6.00 Build 0)  -->
<!DOCTYPE svg PUBLIC "-//W3C//DTD SVG 1.1//EN" "http://www.w3.org/Graphics/SVG/1.1/DTD/svg11.dtd">
<svg version="1.1" id="Layer_1" xmlns="http://www.w3.org/2000/svg" xmlns:xlink="http://www.w3.org/1999/xlink" x="0px" y="0px"
	 width="256px" height="256px" viewBox="0 0 256 256" enable-background="new 0 0 256 256" xml:space="preserve">
<path fill="#231F20" d="M249.606,88.599l-24.572-10.924V53.765h1.03c3.466,0,6.349-2.875,6.349-6.341V25.288
	c0-3.466-2.883-6.348-6.349-6.348h-44.272c-3.466,0-6.349,2.882-6.349,6.348v22.137c0,3.466,2.883,6.341,6.349,6.341h1.03v5.095
	l-52.538-23.39c-1.477-0.663-3.099-0.663-4.576,0L6.394,88.599C4.333,89.485,3,91.545,3,93.765v23.239
	c0,3.099,2.587,5.686,5.686,5.686h10.917v108.686c0,3.099,2.587,5.686,5.685,5.686h205.424c3.099,0,5.686-2.587,5.686-5.686V122.689
	h10.917c3.099,0,5.686-2.587,5.686-5.686V93.765C253,91.545,251.667,89.485,249.606,88.599z M188.14,31.629h31.576v4.576
	c-0.295,0-0.663-0.072-1.03-0.072h-29.515c-0.368,0-0.735,0.072-1.031,0.072V31.629z M212.338,53.765v18.231l-16.819-7.451v-10.78
	H212.338z M155.526,225.697h-55.053v-92.603h55.053V225.697z M225.034,225.697H166.89v-98.288c0-3.171-2.587-5.678-5.685-5.678
	h-66.41c-3.099,0-5.686,2.507-5.686,5.678v98.288H30.966v-117.47L128,64.985l55.637,24.795l7.45,3.314l33.947,15.132V225.697z
	 M241.637,111.326h-5.239v-6.788c0-2.219-1.333-4.28-3.394-5.167l-14.095-6.276l-36.087-16.083l-52.538-23.39
	c-1.477-0.663-3.099-0.663-4.576,0L22.996,99.371c-2.061,0.886-3.394,2.947-3.394,5.167v6.788h-5.239V97.454L128,46.833
	l54.822,24.421l12.696,5.686l7.818,3.466l20.883,9.295l17.417,7.753V111.326z"/>
<path fill="#231F20" d="M80.629,165.708v-38.299c0-3.171-2.508-5.678-5.686-5.678H45.428c-3.099,0-5.606,2.507-5.606,5.678v38.299
	c-2.507,0.808-4.352,3.171-4.352,5.974c0,3.474,2.803,6.349,6.269,6.349h36.894c3.545,0,6.348-2.875,6.348-6.349
	C84.981,168.879,83.208,166.516,80.629,165.708z M51.113,133.095h18.224v2.73H51.113V133.095z M69.337,165.341H51.113v-16.826
	h18.224V165.341z"/>
<path fill="#231F20" d="M216.913,165.708v-38.299c0-3.171-2.508-5.678-5.606-5.678h-29.515c-3.171,0-5.679,2.507-5.679,5.678v38.299
	c-2.587,0.808-4.359,3.171-4.359,5.974c0,3.474,2.803,6.349,6.349,6.349h36.894c3.466,0,6.349-2.875,6.349-6.349
	C221.345,168.879,219.5,166.516,216.913,165.708z M187.397,133.095h18.231v2.73h-18.231V133.095z M205.629,165.341h-18.231v-16.826
	h18.231V165.341z"/>
</svg>
