<?xml version="1.0" encoding="utf-8"?>
<!-- Generator: Adobe Illustrator 16.0.4, SVG Export Plug-In . SVG Version: 6.00 Build 0)  -->
<!DOCTYPE svg PUBLIC "-//W3C//DTD SVG 1.1//EN" "http://www.w3.org/Graphics/SVG/1.1/DTD/svg11.dtd">
<svg version="1.1" id="Layer_1" xmlns="http://www.w3.org/2000/svg" xmlns:xlink="http://www.w3.org/1999/xlink" x="0px" y="0px"
	 width="256px" height="256px" viewBox="0 0 256 256" enable-background="new 0 0 256 256" xml:space="preserve">
<path fill="#00A7CF" d="M236.276,131.811H124.189V19.727c-1.488-0.119-2.976-0.119-4.464-0.119C55.38,19.607,3,71.929,3,136.277
	C3,200.62,55.38,253,119.726,253s116.667-52.38,116.667-116.723C236.393,134.789,236.393,133.299,236.276,131.811z M119.726,244.071
	c-59.524,0-107.797-48.275-107.797-107.794c0-58.039,45.893-105.3,103.333-107.622v112.087h112.086
	C225.022,198.179,177.764,244.071,119.726,244.071z"/>
<g>
	<path fill="#00A7CF" d="M136.289,11.929c59.529,0,107.782,48.255,107.782,107.779H136.289V11.929 M136.289,3h-8.929v8.929v107.779
		v8.929h8.929h107.782H253v-8.929C253,55.354,200.644,3,136.289,3L136.289,3z"/>
</g>
</svg>
