<?xml version="1.0" encoding="utf-8"?>
	<!-- Generator: Adobe Illustrator 16.0.4, SVG Export Plug-In . SVG Version: 6.00 Build 0)  -->
	<!DOCTYPE svg PUBLIC "-//W3C//DTD SVG 1.1//EN" "http://www.w3.org/Graphics/SVG/1.1/DTD/svg11.dtd">
	<svg version="1.1" id="Layer_1" xmlns="http://www.w3.org/2000/svg" xmlns:xlink="http://www.w3.org/1999/xlink" x="0px" y="0px" width="256px" height="256px" viewBox="0 0 256 256" enable-background="new 0 0 256 256" xml:space="preserve">
		<path fill="#00a7cf" d="M231.473,218.048l-11.073-16.465c-1.416-2.101-4.167-2.838-6.426-1.712l-3.318,1.646
	c-7.331,3.646-16.335,8.122-27.7,11.968l-5.961-90.262h21.226c2.791,0,5.056-2.265,5.056-5.057c0-2.791-2.265-5.056-5.056-5.056
	H82.765L62.737,7.115c-0.52-2.745-3.173-4.536-5.905-4.029c-2.745,0.517-4.549,3.163-4.029,5.905l20.815,110.172
	c0.002,0.012,0.004,0.024,0.007,0.036l9.129,48.32v48.908c-16.111-4.316-28.105-10.282-37.411-14.911l-3.321-1.646
	c-2.271-1.126-5.013-0.375-6.425,1.712l-11.074,16.465c-1.547,2.305-0.951,5.425,1.34,6.999C45.561,238.543,91.303,253,128,253
	s82.439-14.457,102.137-27.953C232.428,223.473,233.026,220.353,231.473,218.048z M92.867,174.262h77.369l1.341,20.31H92.867
	V174.262z M136.115,164.148l-2.697-40.926h10.095l2.702,40.926H136.115z M125.981,164.148h-10.085l-2.703-40.926h10.087
	L125.981,164.148z M169.567,164.148h-13.222l-2.703-40.926h13.222L169.567,164.148z M103.057,123.223l2.703,40.926H92.408
	l-7.733-40.926H103.057z M92.867,204.684h79.377l0.779,11.802c-12.373,3.296-27.162,5.618-45.024,5.618
	c-13.333,0-24.949-1.297-35.133-3.324V204.684z M128,242.888c-32.375,0-71.948-11.705-92.179-23.517l5.695-8.466
	c17.328,8.618,43.392,21.311,86.484,21.311c43.089,0,69.153-12.692,86.481-21.311l5.695,8.466
	C199.951,231.183,160.377,242.888,128,242.888z" />
	</svg>
