<?xml version="1.0" encoding="utf-8"?>
<!-- Generator: Adobe Illustrator 16.0.4, SVG Export Plug-In . SVG Version: 6.00 Build 0)  -->
<!DOCTYPE svg PUBLIC "-//W3C//DTD SVG 1.1//EN" "http://www.w3.org/Graphics/SVG/1.1/DTD/svg11.dtd">
<svg version="1.1" id="Layer_1" xmlns="http://www.w3.org/2000/svg" xmlns:xlink="http://www.w3.org/1999/xlink" x="0px" y="0px"
	 width="256px" height="256px" viewBox="0 0 256 256" enable-background="new 0 0 256 256" xml:space="preserve">
<g>
	<path fill="#00A7CE" d="M132.581,50.124c-2.529,0-4.581,2.052-4.581,4.581v82.458c0,2.529,2.052,4.581,4.581,4.581
		s4.581-2.052,4.581-4.581V54.705C137.162,52.176,135.11,50.124,132.581,50.124z"/>
	<path fill="#00A7CE" d="M50.123,105.096c-2.529,0-4.581,2.052-4.581,4.581v27.486c0,2.529,2.052,4.581,4.581,4.581
		s4.581-2.052,4.581-4.581v-27.486C54.704,107.148,52.652,105.096,50.123,105.096z"/>
	<path fill="#00A7CE" d="M77.609,86.772c-2.529,0-4.581,2.052-4.581,4.581v45.81c0,2.529,2.052,4.581,4.581,4.581
		c2.529,0,4.581-2.052,4.581-4.581v-45.81C82.19,88.824,80.138,86.772,77.609,86.772z"/>
	<path fill="#00A7CE" d="M105.095,68.448c-2.529,0-4.581,2.052-4.581,4.581v64.134c0,2.529,2.052,4.581,4.581,4.581
		c2.529,0,4.581-2.052,4.581-4.581V73.029C109.676,70.5,107.624,68.448,105.095,68.448z"/>
	<path fill="#00A7CE" d="M243.623,198.279l-45.351-45.356l-6.472-6.479l-13.806-13.796c5.293-11.585,8.246-24.462,8.246-38.03
		c0-50.597-41.026-91.621-91.621-91.621C44.021,2.998,3,44.021,3,94.619s41.021,91.624,91.621,91.624
		c13.567,0,26.444-2.953,38.028-8.247l13.795,13.807l6.478,6.478l45.352,45.345c12.508,12.503,32.849,12.503,45.351,0
		C256.126,231.122,256.126,210.782,243.623,198.279z M12.162,94.619c0-45.467,36.988-82.458,82.458-82.458
		c45.464,0,82.458,36.991,82.458,82.458s-36.994,82.461-82.458,82.461C49.15,177.08,12.162,140.086,12.162,94.619z M141.158,173.549
		c13.34-7.884,24.506-19.05,32.39-32.39l11.769,11.764l-32.396,32.389L141.158,173.549z M237.146,237.146
		c-8.947,8.947-23.454,8.947-32.39,0l-45.356-45.345l32.401-32.401l45.345,45.356C246.093,213.705,246.093,228.199,237.146,237.146z
		"/>
</g>
</svg>
