<?xml version="1.0" encoding="utf-8"?>
<!-- Generator: Adobe Illustrator 16.0.4, SVG Export Plug-In . SVG Version: 6.00 Build 0)  -->
<!DOCTYPE svg PUBLIC "-//W3C//DTD SVG 1.1//EN" "http://www.w3.org/Graphics/SVG/1.1/DTD/svg11.dtd">
<svg version="1.1" id="Layer_1" xmlns="http://www.w3.org/2000/svg" xmlns:xlink="http://www.w3.org/1999/xlink" x="0px" y="0px"
	 width="256px" height="256px" viewBox="0 0 256 256" enable-background="new 0 0 256 256" xml:space="preserve">
<path fill="#00A7CE" d="M137.66,135.721c-0.482,1.939-1.446,4.354-2.409,6.287c-0.488,0.964-0.187,2.415-0.674,3.86
	c-1.933,4.83-2.119,10.147-2.119,14.972v0.963v2.897c-4.458-3.373-11.407-7.233-14.788-12.557
	c-3.382-5.312-4.731-12.557-5.213-19.313c-0.488-5.8-1.167-11.111,0.284-15.454c5.314-0.969,11.497,0.964,14.878,4.824l0.912,0.963
	c0.967,1.458,2.4,2.903,3.846,4.354c0.97,0.482,1.922,0.964,2.885,1.452c0.488,0,0.964,0.476,1.44,0.964
	C137.666,130.891,138.147,133.312,137.66,135.721 M139.111,120.755c-0.482,0-0.964-0.482-1.451-0.964
	c-0.482-0.488-1.446-1.451-1.934-1.939c-0.476-0.476-0.476-0.958-0.964-1.445c-6.763-7.721-17.865-10.624-27.525-7.245
	c-0.963,0.488-1.933,1.452-2.415,2.421c-3.869,7.721-2.906,16.417-1.936,22.692c0.966,7.245,1.936,15.459,6.281,23.191
	c4.345,7.233,11.111,12.074,17.384,15.93c0.484,0.487,1.93,0.963,3.382,1.451c0.481,0,1.451,0.487,1.938,0.487
	c3.379,0,7.163-2.421,8.614-6.281c0.964-2.415,0.889-4.83,0.889-6.763v-0.964c0-3.86,1.051-7.727,2.496-11.593
	c0.477-0.976,1.004-1.938,1.475-3.391c0.976-2.408,2.438-5.306,2.92-8.196c0-6.769-1.916-12.562-6.27-15.947
	C141.038,121.243,139.593,120.755,139.111,120.755 M94.069,220.022c1.808-0.958,3.602-2.281,4.957-3.634
	c10.618-8.208,15.451-16.904,13.521-25.606c-0.964-5.312-4.348-9.172-6.76-12.557c-2.415-2.902-6.284-5.793-9.66-9.172
	c-13.523-11.599-29.461-24.637-20.771-50.226c1.933-6.287,3.381-6.775,7.729-9.178c1.924-0.969,3.863-1.933,6.281-3.384
	c3.86-2.415,7.242-4.83,9.659-8.69c1.928-2.902,2.891-7.25,2.891-11.599c0-10.147-6.272-18.832-14.968-21.734
	c-2.415-0.481-4.345-0.958-6.766-0.958c-1.445,0-3.375-0.488-4.345-0.488c-1.445-0.482-2.888-1.933-2.888-1.933
	c0-0.482,0.958-1.451,1.442-1.927c1.445-1.451,3.378-3.866,3.378-7.245c0.232-2.264-0.629-4.522-2.029-6.635
	C90.885,35.478,108.8,29.917,128,29.917c6.322,0,12.51,0.621,18.501,1.771c-6.049,4.336-9.683,10.02-12.214,14.67
	c-0.488,1.451-1.454,2.665-1.937,5.08c0,2.891,0.961,5.683,2.412,7.128c4.83,7.245,12.411,12.986,21.107,14.919l-1.12,9.108v0.975
	c0,5.794,3.048,10.136,7.878,12.557c2.415,0.964,4.667,1.451,7.082,1.451c4.824,0,9.566-1.451,12.957-3.872
	c3.866-2.891,3.819-6.281,3.819-7.727c0-0.969-0.505-2.409-0.986-3.384c0-0.958-0.488-1.445-0.488-2.409
	c0-1.451-0.012-3.378,1.435-5.799c0.969-2.403,3.384-3.854,6.286-5.793c2.909-1.289,5.823-3.471,8.598-5.637
	c7.669,8.638,13.828,18.628,18.089,29.577c-1.225,0.372-2.63,0.865-4.481,1.654c-3.86,1.939-6.757,6.304-8.69,9.689
	c-1.451,2.409-3.378,6.292-4.83,6.292h-7.244c-2.09-1.614-4.244-2.247-6.421-2.247c-3.843,0-7.744,2.003-11.453,4.163
	c-5.788,3.378-9.172,8.684-10.142,15.923c-0.482,5.312,0.481,11.349,2.902,17.63c0.964,2.415,2.891,5.666,5.794,7.594
	c2.896,1.938,6.281,2.362,9.184,2.362c5.306,0.481,10.611,3.35,14.002,7.21c3.378,4.348,4.83,9.16,3.866,14.472
	c0,1.452-0.488,2.892-0.976,4.343c-0.609,4.296-1.37,8.823-1.753,13.758c-17.892,18.89-43.173,30.709-71.177,30.709
	C116.076,226.083,104.652,223.936,94.069,220.022 M69.078,50.722c0,0.482-0.961,0.969-1.448,1.933
	c-0.964,1.445-2.903,3.379-3.376,5.793c-1.451,6.275,3.863,12.081,9.654,13.532c1.93,0.476,4.351,0.952,6.275,0.952
	c1.939,0,3.39,0.488,4.827,0.488c5.32,1.451,7.735,7.727,8.217,12.556c0,1.939,0,4.348-1.446,6.287
	c-1.451,2.409-3.863,3.86-6.771,5.312c-2.406,1.44-4.339,2.415-5.791,3.379c-6.27,2.896-9.66,5.312-12.554,14.483
	c-10.629,31.882,9.66,49.263,23.665,60.861c3.381,2.891,6.766,5.793,8.696,8.208c1.928,2.415,4.345,4.83,4.827,7.727
	c1.451,6.764-5.802,13.044-10.142,15.947c-1.448,1.439-3.381,2.409-4.833,3.372c-1.861,1.155-3.715,2.34-5.463,3.762
	c-31.725-16.26-53.5-49.285-53.5-87.314c0-31.806,15.224-60.101,38.752-78.032C68.86,50.252,69.008,50.513,69.078,50.722
	 M175.335,82.122c0,0.958,0.481,2.409,0.964,3.373c0,0.481,0,0.481,0.481,0.963c-1.114,0.743-4.22,1.771-7.129,1.771
	c-0.882,0-1.741-0.093-2.524-0.313c-1.452-0.493-2.897-1.457-3.385-4.348l1.933-13.526c0-1.451,0-2.415-0.969-3.866
	c-0.964-0.963-1.928-1.933-3.379-1.933c-7.245-0.481-14.489-4.83-18.355-11.105c-0.964-0.964-0.964-1.446-0.964-1.446
	c0-0.487,0.487-0.969,0.487-1.451c2.903-5.317,5.794-10.629,10.136-12.562l0.976-0.476c1.207-0.406,3.06-1.19,4.493-2.543
	c13.509,4.372,25.752,11.576,35.997,20.945c-2.142,1.584-4.324,3.001-6.205,3.808c-4.83,2.42-8.209,5.799-10.624,9.666
	C175.816,74.384,174.854,78.256,175.335,82.122 M206.247,156.491c-4.83-6.27-12.562-10.623-20.771-11.099
	c-1.928,0-3.379-0.488-4.342-0.976c-0.97-0.477-1.934-2.409-2.415-3.379c-1.939-4.83-2.903-8.69-2.421-12.556
	c0.481-3.86,2.421-7.721,5.312-9.172c2.252-1.289,4.946-1.718,7.906-1.718c1.486,0,3.048,0.104,4.656,0.267
	c1.927,0,3.646,0.215,5.434,0.215c0.899,0,1.811-0.052,2.774-0.215c6.275-0.482,9.66-5.317,12.075-9.178
	c1.451-2.415,3.384-4.83,4.829-5.317c1.242-0.494,2.346-0.854,3.332-1.161c2.247,8.226,3.466,16.87,3.466,25.798
	c0,18.448-5.126,35.713-14.019,50.47C212.958,170.818,211.02,162.703,206.247,156.491 M235,128c0-59.096-47.91-107-107-107
	C68.907,21,21,68.904,21,128c0,59.09,47.907,107,107,107c21.148,0,40.845-6.165,57.447-16.748v-0.006
	c0.157-0.093,0.308-0.191,0.453-0.29h0.006c4.377-2.821,8.533-5.956,12.44-9.369c0-0.006,0.012-0.006,0.012-0.012
	c0.11-0.093,0.221-0.191,0.331-0.29c1.962-1.73,3.871-3.53,5.712-5.399c0.093-0.104,0.186-0.203,0.29-0.302
	c0.006-0.012,0.012-0.023,0.023-0.034c1.822-1.876,3.588-3.814,5.276-5.829c0.006-0.006,0.012-0.012,0.018-0.018
	c1.614-1.927,3.152-3.912,4.627-5.944c0.006-0.006,0.006-0.006,0.012-0.006c0.203-0.278,0.4-0.568,0.598-0.847
	c0.012-0.012,0.012-0.023,0.023-0.023c2.867-4.052,5.468-8.296,7.767-12.73c0-0.006,0.006-0.018,0.012-0.023
	c0.203-0.389,0.412-0.796,0.604-1.19c0.006-0.006,0.006-0.012,0.006-0.012c2.223-4.429,4.145-9.032,5.747-13.781
	c0.006-0.023,0.011-0.034,0.022-0.063c0.958-2.851,1.806-5.759,2.525-8.714c0.064-0.296,0.128-0.592,0.203-0.894
	c0.006-0.012,0.006-0.023,0.006-0.023c0.505-2.159,0.952-4.342,1.318-6.548c0.005-0.012,0.005-0.035,0.011-0.047
	c0.041-0.255,0.088-0.511,0.14-0.767c0.4-2.53,0.702-5.079,0.929-7.662c0,0,0.006-0.012,0.006-0.023
	c0.053-0.558,0.087-1.126,0.128-1.695v-0.012C234.878,133.155,235,130.595,235,128"/>
</svg>
