<?xml version="1.0" encoding="utf-8"?>
<!-- Generator: Adobe Illustrator 16.0.4, SVG Export Plug-In . SVG Version: 6.00 Build 0)  -->
<!DOCTYPE svg PUBLIC "-//W3C//DTD SVG 1.1//EN" "http://www.w3.org/Graphics/SVG/1.1/DTD/svg11.dtd">
<svg version="1.1" id="Layer_1" xmlns="http://www.w3.org/2000/svg" xmlns:xlink="http://www.w3.org/1999/xlink" x="0px" y="0px"
	 width="600px" height="360px" viewBox="0 0 600 360" enable-background="new 0 0 600 360" xml:space="preserve">
<path opacity="0.5" fill="#00A7CF" d="M34.138,320.158c0,0,300.274-55.742,519.868-317.158v179.781
	C335.055,276.909,34.138,320.158,34.138,320.158z"/>
<path fill="none" stroke="#FFA400" stroke-width="4.8054" stroke-linecap="round" stroke-miterlimit="10" d="M34.138,320.158
	c0,0,300.917-43.249,519.868-137.377"/>
<path fill="none" stroke="#D7D7D7" stroke-width="1.9222" stroke-miterlimit="10" d="M554.006,3"/>
<path fill="none" stroke="#00A7CF" stroke-width="4.8054" stroke-linecap="round" stroke-miterlimit="10" d="M554.006,3
	C334.412,264.416,34.138,320.158,34.138,320.158"/>
<polyline fill="none" stroke="#D7D7D7" stroke-width="1.9222" stroke-miterlimit="10" points="27.507,12.61 30.39,330.729 
	556.104,329.769 "/>
<text transform="matrix(1 0 0 1 333.1328 95.2646)" fill="#00A7CF" font-family="'Muli-Bold'" font-size="31.7158">Smartly</text>
<text transform="matrix(1 0 0 1 333.1328 299.0156)" fill="#FFA400" font-family="'Muli-Bold'" font-size="31.7158">Unit trust</text>
<text transform="matrix(1 0 0 1 6.3647 351.873)" font-family="'Muli'" font-size="17.2995">Today</text>
<text transform="matrix(1 0 0 1 519.582 351.873)" font-family="'Muli'" font-size="17.2995">30 Years</text>
<text transform="matrix(-4.371140e-08 -1 1 -4.371138e-08 20.5068 231.9141)" font-family="'Muli'" font-size="17.2995">Portfolio value</text>
</svg>
