<?xml version="1.0" encoding="utf-8"?>
<!-- Generator: Adobe Illustrator 16.0.4, SVG Export Plug-In . SVG Version: 6.00 Build 0)  -->
<!DOCTYPE svg PUBLIC "-//W3C//DTD SVG 1.1//EN" "http://www.w3.org/Graphics/SVG/1.1/DTD/svg11.dtd">
<svg version="1.1" id="Layer_1" xmlns="http://www.w3.org/2000/svg" xmlns:xlink="http://www.w3.org/1999/xlink" x="0px" y="0px"
	 width="200px" height="40px" viewBox="0 0 200 40" enable-background="new 0 0 200 40" xml:space="preserve">
<path fill="#00A7CE" d="M66.614,26.587c-0.043,1.487-0.338,2.691-0.888,3.608c-0.549,0.916-1.269,1.374-2.159,1.374
	c-0.738,0-1.287-0.275-1.648-0.827c-0.362-0.551-0.752-1.681-1.168-3.386c-1.446,2.811-3.812,4.213-7.095,4.213
	c-2.241,0-4.021-0.803-5.341-2.414c-1.323-1.609-1.984-3.916-1.984-6.915c0-2.952,0.724-5.248,2.17-6.891
	c1.447-1.643,3.185-2.463,5.216-2.463c1.434,0,2.609,0.468,3.527,1.406c0.919,0.936,1.732,2.462,2.441,4.578l1.213-5.208
	l0.026-0.115c0.09-0.282,0.344-0.488,0.652-0.507h0.089h1.953h0.089c0.385,0.023,0.688,0.337,0.688,0.726
	c0,0.046-0.005,0.094-0.014,0.138l-0.006,0.027l-2.019,8.384c-0.417,1.693-0.703,2.732-0.855,3.117
	c0.555,2.359,1.363,3.539,2.42,3.539c1.252,0,1.899-0.795,1.94-2.385H66.614z M59.123,20.947c-0.654-2.063-1.385-3.677-2.192-4.837
	c-0.806-1.161-1.774-1.742-2.9-1.742c-2.546,0-3.819,2.746-3.819,8.235c0,5.208,1.218,7.812,3.651,7.812
	c2.115,0,3.68-2.296,4.695-6.887L59.123,20.947z M100.316,13.311c-0.765,0-0.977,0.213-0.977,0.977v9.64
	c0,5.011,2.463,7.643,6.838,7.643c3.566,0,5.986-1.74,6.326-3.651v1.359c0,5.987-3.863,7.049-7.261,7.049
	c-2.207,0-3.566-0.425-4.798-0.849c-0.468-0.17-0.807-0.17-0.807,0.551v0.809c0,0.551,0.211,0.763,0.764,0.934
	c0.978,0.425,2.973,0.808,5.011,0.808c3.822,0,9.768-1.275,9.768-9.683V14.288c0-0.764-0.169-0.977-0.935-0.977h-0.763
	c-0.768,0-0.979,0.213-0.979,0.977v9.64c-0.297,3.1-1.996,5.265-5.435,5.265c-3.229,0-5.011-1.868-5.011-5.604v-9.3
	c0-0.764-0.213-0.977-0.977-0.977H100.316z M94.133,26.815V2.398c0-0.764-0.169-0.977-0.977-0.977h-0.722
	c-0.765,0-0.976,0.212-0.976,0.977v24.713c0,3.059,0.806,4.334,3.439,4.334c0.595,0,1.062-0.086,1.571-0.256
	c0.51-0.128,0.637-0.299,0.637-0.851v-0.808c0-0.55-0.127-0.635-0.467-0.55c-0.297,0.043-0.552,0.127-1.146,0.127
	C94.431,29.108,94.133,28.259,94.133,26.815 M80.774,24.352c0,5.224,1.911,7.008,5.478,7.008c0.552,0,1.401-0.042,1.996-0.255
	c0.254-0.086,0.552-0.214,0.552-0.808v-0.891c0-0.468-0.212-0.596-0.552-0.554c-0.595,0.171-0.978,0.256-1.571,0.256
	c-1.996,0-3.185-0.807-3.185-4.247v-9.383h3.652c0.679,0,0.849-0.213,0.849-0.85V14.16c0-0.68-0.17-0.849-0.849-0.849h-3.652V9.447
	c0-0.807-0.255-0.977-1.104-0.977h-0.637c-0.765,0-0.977,0.17-0.977,0.977V24.352z M77.347,12.93
	c-0.382-0.043-0.849-0.043-1.189-0.043c-4.713,0-7.516,2.506-7.516,8.027v9.298c0,0.724,0.211,0.936,0.977,0.936h0.722
	c0.806,0,0.976-0.212,0.976-0.977v-9.257c0-3.694,1.741-5.605,4.841-5.605c0.34,0,0.849,0.042,1.189,0.042
	c0.552,0,0.722-0.17,0.722-0.68v-0.891C78.069,13.184,77.856,12.93,77.347,12.93 M42.781,20.488c0-5.987-3.482-7.601-6.71-7.601
	c-2.547,0-4.882,1.062-5.944,3.821c-1.147-2.844-3.482-3.821-5.945-3.821c-3.228,0-6.709,1.614-6.709,7.601v9.682
	c0,0.765,0.17,0.977,0.976,0.977h0.722c0.807,0,0.977-0.212,0.977-0.977v-9.809c0-3.908,2.208-5.138,4.289-5.138
	c2.124,0,4.332,1.23,4.332,5.138v9.809c0,0.765,0.169,0.977,0.976,0.977h0.722c0.765,0,0.977-0.212,0.977-0.977v-9.809
	c0-3.908,2.25-5.138,4.331-5.138c2.124,0,4.289,1.23,4.289,5.138v9.809c0,0.765,0.212,0.977,0.977,0.977h0.765
	c0.764,0,0.976-0.212,0.976-0.977V20.488z M14.25,26.263c0,4.076-2.888,5.308-7.091,5.308c-1.826,0-3.355-0.127-5.394-0.68
	C1.169,30.766,1,30.595,1,30.086V29.15c0-0.636,0.169-0.722,0.807-0.594c1.868,0.552,3.525,0.722,5.139,0.722
	c2.887,0,4.756-0.764,4.756-3.016c0-2.377-2.549-2.803-4.927-3.312c-2.802-0.594-5.605-1.529-5.605-5.096
	c0-4.289,3.568-4.968,6.838-4.968c1.656,0,3.567,0.17,4.84,0.552c0.552,0.171,0.723,0.34,0.723,0.722v0.978
	c0,0.594-0.213,0.679-0.807,0.551c-1.53-0.466-3.271-0.595-4.714-0.595c-2.081,0-4.332,0.297-4.332,2.632
	c0,2.081,2.124,2.464,4.713,3.059C11.234,21.422,14.25,22.398,14.25,26.263"/>
<path fill="#555759" d="M199,26.48v0.239c0,0.138-0.046,0.185-0.194,0.185c-0.092,0-0.229-0.013-0.32-0.013
	c-0.834,0-1.302,0.514-1.302,1.508v2.49c0,0.206-0.046,0.264-0.263,0.264h-0.195c-0.204,0-0.264-0.058-0.264-0.251v-2.503
	c0-1.486,0.755-2.16,2.023-2.16c0.092,0,0.218,0,0.32,0.012C198.942,26.251,199,26.32,199,26.48 M192.951,30.639
	c-1.119,0-1.794-0.753-1.794-1.874c0-1.119,0.675-1.896,1.794-1.896c1.12,0,1.805,0.777,1.805,1.896
	C194.756,29.886,194.071,30.639,192.951,30.639 M192.951,26.24c-1.553,0-2.536,1.039-2.536,2.524s0.983,2.502,2.536,2.502
	s2.547-1.017,2.547-2.502S194.516,26.24,192.951,26.24 M190.078,30.684v0.242c0,0.158-0.079,0.193-0.147,0.216
	c-0.161,0.057-0.388,0.069-0.539,0.069c-0.958,0-1.472-0.481-1.472-1.885v-4.012c0-0.218,0.058-0.263,0.263-0.263h0.17
	c0.229,0,0.299,0.045,0.299,0.263v1.04h0.981c0.183,0,0.229,0.047,0.229,0.229v0.127c0,0.171-0.046,0.227-0.229,0.227h-0.981v2.526
	c0,0.926,0.318,1.142,0.855,1.142c0.161,0,0.263-0.022,0.424-0.068C190.021,30.525,190.078,30.56,190.078,30.684 M186.955,29.839
	c0,1.097-0.776,1.428-1.908,1.428c-0.492,0-0.902-0.032-1.45-0.183c-0.16-0.033-0.207-0.08-0.207-0.216v-0.253
	c0-0.171,0.047-0.192,0.217-0.158c0.503,0.147,0.948,0.194,1.383,0.194c0.778,0,1.28-0.207,1.28-0.812
	c0-0.639-0.687-0.754-1.325-0.892c-0.755-0.16-1.508-0.41-1.508-1.37c0-1.153,0.958-1.337,1.838-1.337
	c0.446,0,0.96,0.047,1.304,0.148c0.148,0.046,0.194,0.092,0.194,0.194v0.263c0,0.161-0.058,0.183-0.217,0.148
	c-0.412-0.126-0.88-0.16-1.27-0.16c-0.56,0-1.164,0.079-1.164,0.709c0,0.56,0.571,0.663,1.269,0.823
	C186.144,28.537,186.955,28.8,186.955,29.839 M179.113,28.72c0-1.177,0.548-1.919,1.599-1.919c0.596,0,1.132,0.228,1.132,0.925
	c0,0.743-0.63,1.007-1.612,1.007h-1.118V28.72z M182.392,30.353c-0.354,0.127-0.845,0.309-1.463,0.309
	c-0.891,0-1.61-0.376-1.782-1.416h1.133c1.336,0,2.261-0.39,2.261-1.52c0-1.086-0.88-1.485-1.861-1.485
	c-1.601,0-2.251,1.084-2.251,2.514c0,1.656,0.891,2.513,2.455,2.513c0.642,0,1.177-0.137,1.566-0.295
	c0.16-0.071,0.182-0.127,0.182-0.276v-0.17C182.631,30.318,182.528,30.307,182.392,30.353 M178.044,26.596l-1.713,4.317
	c-0.08,0.193-0.148,0.24-0.354,0.24h-0.273c-0.216,0-0.285-0.047-0.366-0.24l-1.714-4.317c-0.081-0.195-0.045-0.242,0.161-0.242
	h0.24c0.203,0,0.274,0.059,0.331,0.253l1.485,3.873l1.463-3.873c0.057-0.194,0.124-0.253,0.33-0.253h0.252
	C178.092,26.354,178.126,26.4,178.044,26.596 M173.002,28.56v2.33c0,0.206-0.046,0.264-0.262,0.264h-0.194
	c-0.206,0-0.264-0.058-0.264-0.264v-2.342c0-1.051-0.48-1.656-1.405-1.656c-0.937,0-1.405,0.605-1.405,1.656v2.342
	c0,0.206-0.045,0.264-0.263,0.264h-0.193c-0.219,0-0.264-0.058-0.264-0.264v-2.33c0-1.45,0.697-2.319,2.125-2.319
	C172.306,26.24,173.002,27.109,173.002,28.56 M166.452,24.915c0-0.285,0.205-0.48,0.479-0.48c0.25,0,0.456,0.195,0.456,0.48
	c0,0.297-0.206,0.48-0.456,0.48C166.657,25.396,166.452,25.212,166.452,24.915 M168.073,30.719v0.217
	c0,0.148-0.034,0.194-0.171,0.229c-0.138,0.046-0.264,0.069-0.424,0.069c-0.708,0-0.924-0.345-0.924-1.167v-3.449
	c0-0.206,0.057-0.264,0.262-0.264h0.194c0.218,0,0.263,0.058,0.263,0.264v3.37c0,0.388,0.079,0.616,0.365,0.616
	c0.161,0,0.229-0.022,0.309-0.033C168.039,30.548,168.073,30.571,168.073,30.719 M162.854,28.56v2.33
	c0,0.206-0.045,0.264-0.262,0.264h-0.194c-0.205,0-0.264-0.058-0.264-0.264v-2.342c0-1.051-0.479-1.656-1.404-1.656
	c-0.937,0-1.406,0.605-1.406,1.656v2.342c0,0.206-0.045,0.264-0.263,0.264h-0.193c-0.217,0-0.263-0.058-0.263-0.264v-2.33
	c0-1.45,0.696-2.319,2.125-2.319S162.854,27.109,162.854,28.56 M154.659,30.639c-1.145,0-1.771-0.8-1.771-1.885
	s0.639-1.886,1.771-1.886c1.142,0,1.815,0.801,1.815,1.886S155.789,30.639,154.659,30.639 M157.789,30.56
	c-0.047,0.022-0.126,0.045-0.206,0.045c-0.309,0-0.378-0.216-0.378-0.64v-1.188c0-1.543-1.004-2.536-2.558-2.536
	c-1.509,0-2.503,0.993-2.503,2.514c0,1.461,0.938,2.513,2.433,2.513c0.88,0,1.521-0.364,1.897-0.97
	c0.011,0.696,0.33,0.914,0.822,0.914c0.264,0,0.366-0.013,0.525-0.07c0.115-0.034,0.172-0.103,0.172-0.205v-0.262
	C157.994,30.523,157.95,30.523,157.789,30.56 M145.417,28.72c0-1.177,0.55-1.919,1.6-1.919c0.596,0,1.132,0.228,1.132,0.925
	c0,0.743-0.629,1.007-1.61,1.007h-1.121V28.72z M148.695,30.353c-0.354,0.127-0.845,0.309-1.463,0.309
	c-0.89,0-1.61-0.376-1.781-1.416h1.132c1.337,0,2.262-0.39,2.262-1.52c0-1.086-0.88-1.485-1.862-1.485
	c-1.6,0-2.251,1.084-2.251,2.514c0,1.656,0.891,2.513,2.456,2.513c0.641,0,1.177-0.137,1.566-0.295
	c0.159-0.071,0.183-0.127,0.183-0.276v-0.17C148.937,30.318,148.834,30.307,148.695,30.353 M141.471,26.868
	c1.131,0,1.771,0.801,1.771,1.886c0,1.084-0.652,1.886-1.828,1.886c-1.154,0-1.759-0.802-1.759-1.886
	C139.655,27.669,140.341,26.868,141.471,26.868 M141.425,24.263c1.655,0,4.233-0.552,4.233-4.194v-6.33
	c0-0.331-0.074-0.423-0.406-0.423h-0.331c-0.331,0-0.423,0.092-0.423,0.423v4.177c-0.129,1.343-0.865,2.282-2.355,2.282
	c-1.397,0-2.171-0.81-2.171-2.43v-4.029c0-0.331-0.091-0.423-0.424-0.423h-0.332c-0.33,0-0.421,0.092-0.421,0.423v4.177
	c0,2.171,1.066,3.312,2.96,3.312c1.546,0,2.596-0.755,2.743-1.583v0.589c0,2.595-1.675,3.054-3.147,3.054
	c-0.957,0-1.545-0.184-2.079-0.367c-0.203-0.073-0.349-0.073-0.349,0.238v0.35c0,0.003,0,0.004,0,0.006v5.194
	c0,1.486,0.914,2.559,2.479,2.559c1.567,0,2.584-0.993,2.584-2.513c0-1.462-0.938-2.515-2.447-2.515
	c-0.889,0-1.529,0.367-1.896,0.973v-3.169C140.105,24.168,140.76,24.263,141.425,24.263 M135.29,28.56v2.33
	c0,0.206-0.046,0.264-0.263,0.264h-0.193c-0.206,0-0.264-0.058-0.264-0.264v-2.342c0-1.051-0.48-1.656-1.405-1.656
	c-0.937,0-1.405,0.605-1.405,1.656v2.342c0,0.206-0.046,0.264-0.263,0.264h-0.195c-0.217,0-0.262-0.058-0.262-0.264v-2.33
	c0-1.45,0.698-2.319,2.125-2.319C134.593,26.24,135.29,27.109,135.29,28.56 M127.095,30.639c-1.143,0-1.771-0.8-1.771-1.885
	s0.639-1.886,1.771-1.886c1.142,0,1.816,0.801,1.816,1.886S128.226,30.639,127.095,30.639 M130.225,30.56
	c-0.047,0.022-0.126,0.045-0.205,0.045c-0.308,0-0.378-0.216-0.378-0.64v-1.188c0-1.543-1.005-2.536-2.56-2.536
	c-1.508,0-2.501,0.993-2.501,2.514c0,1.461,0.936,2.513,2.434,2.513c0.878,0,1.519-0.364,1.896-0.97
	c0.01,0.696,0.332,0.914,0.821,0.914c0.265,0,0.366-0.013,0.526-0.07c0.114-0.034,0.172-0.103,0.172-0.205v-0.262
	C130.431,30.523,130.385,30.523,130.225,30.56 M124.037,30.674v0.148c0,0.206-0.078,0.273-0.226,0.297
	c-0.309,0.092-0.653,0.147-0.983,0.147c-1.611,0-2.594-0.925-2.594-2.502c0-1.599,0.982-2.524,2.547-2.524
	c0.368,0,0.709,0.058,1.03,0.172c0.147,0.022,0.216,0.091,0.216,0.297v0.137c0,0.193-0.081,0.241-0.206,0.206
	c-0.274-0.104-0.569-0.184-0.936-0.184c-1.235,0-1.886,0.743-1.886,1.886c0,1.132,0.628,1.897,1.908,1.897
	c0.344,0,0.651-0.069,0.903-0.161C123.982,30.457,124.037,30.513,124.037,30.674 M165.565,17.124c0-1.896,0.884-3.091,2.575-3.091
	c0.958,0,1.821,0.368,1.821,1.491c0,1.195-1.011,1.619-2.593,1.619h-1.804V17.124z M171.232,20.308v-0.276
	c0-0.332-0.164-0.349-0.387-0.276c-0.57,0.202-1.361,0.498-2.354,0.498c-1.437,0-2.596-0.608-2.871-2.282h1.82
	c2.153,0,3.646-0.625,3.646-2.447c0-1.748-1.418-2.393-3.001-2.393c-2.576,0-3.624,1.748-3.624,4.047
	c0,2.668,1.435,4.048,3.954,4.048c1.032,0,1.897-0.221,2.523-0.478C171.196,20.638,171.232,20.546,171.232,20.308 M163.229,16.866
	v3.753c0,0.331-0.074,0.423-0.424,0.423h-0.312c-0.332,0-0.423-0.093-0.423-0.423v-3.772c0-1.692-0.772-2.668-2.265-2.668
	c-1.508,0-2.263,0.976-2.263,2.668v3.772c0,0.331-0.072,0.423-0.424,0.423h-0.312c-0.351,0-0.423-0.093-0.423-0.423v-3.753
	c0-2.337,1.12-3.735,3.421-3.735C162.107,13.131,163.229,14.529,163.229,16.866 M151.066,20.215c-1.805,0-2.89-1.215-2.89-3.018
	c0-1.804,1.085-3.055,2.89-3.055c1.803,0,2.907,1.251,2.907,3.055C153.974,19,152.869,20.215,151.066,20.215 M155.169,17.198
	c0-2.393-1.581-4.067-4.103-4.067c-2.502,0-4.086,1.674-4.086,4.067c0,2.392,1.584,4.029,4.086,4.029
	C153.569,21.227,155.169,19.589,155.169,17.198 M137.192,16.866v3.753c0,0.331-0.072,0.423-0.422,0.423h-0.313
	c-0.333,0-0.424-0.093-0.424-0.423v-3.772c0-1.692-0.773-2.668-2.264-2.668c-1.509,0-2.262,0.976-2.262,2.668v3.772
	c0,0.331-0.074,0.423-0.424,0.423h-0.312c-0.351,0-0.424-0.093-0.424-0.423v-3.753c0-2.337,1.123-3.735,3.422-3.735
	C136.071,13.131,137.192,14.529,137.192,16.866 M124.35,20.215c-1.841,0-2.852-1.289-2.852-3.036c0-1.748,1.029-3.037,2.852-3.037
	c1.841,0,2.927,1.289,2.927,3.037C127.276,18.927,126.171,20.215,124.35,20.215 M127.276,19.663
	c0.018,1.123,0.533,1.473,1.323,1.473c0.424,0,0.589-0.019,0.847-0.112c0.185-0.055,0.276-0.165,0.276-0.33V20.27
	c0-0.24-0.074-0.24-0.331-0.183c-0.073,0.036-0.203,0.074-0.332,0.074c-0.495,0-0.605-0.351-0.605-1.032v-1.913
	c0-2.484-1.621-4.085-4.123-4.085c-2.43,0-4.028,1.601-4.028,4.049c0,2.355,1.508,4.047,3.918,4.047
	C125.638,21.227,126.668,20.638,127.276,19.663"/>
</svg>
