<?xml version="1.0" encoding="utf-8"?>
<!-- Generator: Adobe Illustrator 16.0.4, SVG Export Plug-In . SVG Version: 6.00 Build 0)  -->
<!DOCTYPE svg PUBLIC "-//W3C//DTD SVG 1.1//EN" "http://www.w3.org/Graphics/SVG/1.1/DTD/svg11.dtd">
<svg version="1.1" id="Layer_1" xmlns="http://www.w3.org/2000/svg" xmlns:xlink="http://www.w3.org/1999/xlink" x="0px" y="0px"
	 width="256px" height="256px" viewBox="0 0 256 256" enable-background="new 0 0 256 256" xml:space="preserve">
<path fill="#00A7CE" d="M232.91,165.231c-2.152-0.938-3.294-3.426-2.553-5.781c0.131-0.467,0.263-1.005,0.4-1.478
	C232.104,160.126,232.838,162.541,232.91,165.231z"/>
<path fill="#00A7CE" d="M253,195.809c0,2.757-2.284,5.04-5.041,5.04H222.83v25.609c-0.204,2.684-2.356,4.699-5.041,4.699
	c-2.756,0-5.04-2.219-5.04-5.041v-25.268h-25.274c-2.821,0-5.04-2.283-5.04-5.04c0-2.822,2.219-5.04,5.04-5.04h25.274v-25.137
	c0-2.75,2.284-5.04,5.04-5.04c2.822,0,5.041,2.29,5.041,5.04v25.137h25.129C250.716,190.769,253,192.986,253,195.809z"/>
<path fill="#00A7CE" d="M195.679,150.314c-0.072-0.139-0.138-0.204-0.269-0.342l6.044,11.833L195.679,150.314z"/>
<path fill="#00A7CE" d="M123.968,7.031C57.302,7.031,3,61.265,3,128c0,23.318,6.655,45.094,18.146,63.575
	c2.015,3.295,4.167,6.452,6.517,9.478c8.604,11.426,19.223,21.165,31.318,28.831c2.822,1.884,5.713,3.563,8.735,5.105
	c12.703,6.786,26.816,11.289,41.737,13.106c3.83,0.473,7.728,0.742,11.692,0.808c0.942,0.065,1.88,0.065,2.822,0.065
	c4.502,0,8.939-0.27,13.307-0.742c4.167-0.466,8.269-1.142,12.299-2.015c10.685-2.218,21.034-5.979,30.715-11.157
	c2.953-1.542,5.913-3.222,8.734-5.04c1.208-0.807,2.488-1.607,3.695-2.487c2.284-1.542,2.888-4.699,1.28-6.989
	c-1.549-2.284-4.706-2.888-6.99-1.273c-0.872,0.604-1.68,1.142-2.553,1.681l-6.989-13.776l-4.103-8.132l8.735-17.339l9.077-17.878
	l1.949,3.761c1.273,2.422,4.233,3.433,6.721,2.153c2.48-1.28,3.491-4.299,2.211-6.721l-0.604-1.208l-6.044-11.833
	c-1.753-3.091-7.056-2.953-8.735,0.342l-1.215,2.35l-17.739,35.15l-38.712-76.75V97.558h29.772c2.822,0,5.041-2.218,5.041-5.041
	V72.622c0-2.822-2.219-5.041-5.041-5.041h-34.813c-2.753,0-5.04,2.219-5.04,5.041v38.443L85.26,177.8L61.2,130.084
	c-1.68-3.36-7.259-3.36-9.004,0l-25.674,50.873C17.986,165.231,13.081,147.15,13.081,128c0-61.157,49.731-110.888,110.888-110.888
	S234.859,66.843,234.859,128c0,10.146-1.345,20.227-4.102,29.907v0.065c1.346,2.153,2.08,4.568,2.152,7.259v0.065
	c0.27,0.204,0.538,0.335,0.873,0.407c2.619,0.808,5.44-0.741,6.248-3.433c3.229-11.085,4.909-22.576,4.909-34.271
	C244.94,61.265,190.704,7.031,123.968,7.031z M129.009,77.662h24.732v9.815h-24.732V77.662z M90.904,188.957l33.064-65.528
	l38.108,75.608l5.645,11.157l8.065,15.922c-6.451,3.36-13.244,6.117-20.233,8.204c-4.161,1.273-8.466,2.284-12.765,2.953
	c-6.183,1.076-12.503,1.614-18.82,1.614c-2.688,0-5.375-0.065-8.062-0.334c-4.102-0.27-8.131-0.742-12.03-1.55
	c-11.223-2.015-21.911-5.775-31.653-10.953L85.26,200.18L90.904,188.957z M56.698,143.521l22.915,45.436l-16.128,31.922
	c-12.096-7.862-22.515-18.081-30.712-29.907L56.698,143.521z"/>
<path fill="#00A7CE" d="M232.91,165.231c-2.152-0.938-3.294-3.426-2.553-5.781c0.131-0.467,0.263-1.005,0.4-1.478
	C232.104,160.126,232.838,162.541,232.91,165.231z"/>
</svg>
