<?xml version="1.0" encoding="utf-8"?>
<!-- Generator: Adobe Illustrator 16.0.4, SVG Export Plug-In . SVG Version: 6.00 Build 0)  -->
<!DOCTYPE svg PUBLIC "-//W3C//DTD SVG 1.1//EN" "http://www.w3.org/Graphics/SVG/1.1/DTD/svg11.dtd">
<svg version="1.1" id="Layer_1" xmlns="http://www.w3.org/2000/svg" xmlns:xlink="http://www.w3.org/1999/xlink" x="0px" y="0px"
	 width="340px" height="65px" viewBox="0 0 340 65" enable-background="new 0 0 340 65" xml:space="preserve">
<path fill="#00A7CE" d="M112.719,43.801c-0.074,2.553-0.58,4.618-1.522,6.19c-0.94,1.573-2.177,2.359-3.705,2.359
	c-1.265,0-2.208-0.473-2.828-1.42c-0.62-0.945-1.29-2.883-2.005-5.809c-2.48,4.822-6.54,7.229-12.173,7.229
	c-3.843,0-6.899-1.379-9.164-4.143c-2.269-2.762-3.403-6.719-3.403-11.865c0-5.064,1.242-9.003,3.725-11.821
	c2.481-2.818,5.465-4.227,8.949-4.227c2.461,0,4.477,0.803,6.051,2.412c1.578,1.605,2.972,4.225,4.188,7.854l2.081-8.935
	l0.045-0.197c0.154-0.483,0.59-0.838,1.118-0.87h0.153h3.35h0.154c0.66,0.04,1.181,0.579,1.181,1.245
	c0,0.079-0.009,0.16-0.024,0.236l-0.011,0.046l-3.464,14.386c-0.714,2.905-1.205,4.688-1.466,5.349
	c0.952,4.049,2.338,6.072,4.151,6.072c2.149,0,3.258-1.363,3.33-4.093H112.719z M99.866,34.126c-1.122-3.54-2.376-6.31-3.761-8.3
	c-1.383-1.991-3.043-2.989-4.975-2.989c-4.369,0-6.554,4.712-6.554,14.131c0,8.936,2.089,13.402,6.265,13.402
	c3.629,0,6.314-3.94,8.057-11.817L99.866,34.126z M170.543,21.023c-1.311,0-1.676,0.365-1.676,1.676v16.54
	c0,8.596,4.227,13.113,11.732,13.113c6.119,0,10.271-2.986,10.854-6.266v2.332c0,10.273-6.629,12.095-12.457,12.095
	c-3.787,0-6.119-0.729-8.232-1.457c-0.803-0.292-1.385-0.292-1.385,0.946v1.386c0,0.946,0.361,1.31,1.311,1.603
	c1.676,0.729,5.1,1.385,8.596,1.385c6.559,0,16.76-2.188,16.76-16.612V22.699c0-1.311-0.291-1.676-1.605-1.676h-1.309
	c-1.314,0-1.678,0.365-1.678,1.676v16.54c-0.51,5.318-3.424,9.032-9.324,9.032c-5.539,0-8.598-3.204-8.598-9.616V22.699
	c0-1.311-0.365-1.676-1.676-1.676H170.543z M159.936,44.193V2.3c0-1.312-0.291-1.676-1.676-1.676h-1.24
	c-1.311,0-1.674,0.364-1.674,1.676v42.402c0,5.246,1.383,7.434,5.9,7.434c1.021,0,1.822-0.146,2.695-0.438
	c0.875-0.22,1.094-0.512,1.094-1.459v-1.385c0-0.945-0.219-1.091-0.801-0.945c-0.51,0.073-0.947,0.219-1.967,0.219
	C160.445,48.128,159.936,46.669,159.936,44.193 M137.014,39.966c0,8.962,3.279,12.023,9.398,12.023c0.947,0,2.404-0.072,3.426-0.437
	c0.436-0.147,0.945-0.366,0.945-1.386v-1.529c0-0.803-0.363-1.021-0.945-0.949c-1.021,0.292-1.678,0.439-2.695,0.439
	c-3.426,0-5.465-1.385-5.465-7.287v-16.1h6.266c1.164,0,1.457-0.365,1.457-1.458V22.48c0-1.166-0.293-1.456-1.457-1.456h-6.266
	v-6.631c0-1.384-0.438-1.676-1.895-1.676h-1.094c-1.311,0-1.676,0.292-1.676,1.676V39.966z M131.135,20.369
	c-0.656-0.074-1.457-0.074-2.041-0.074c-8.086,0-12.896,4.3-12.896,13.771v15.954c0,1.24,0.364,1.604,1.676,1.604h1.238
	c1.384,0,1.676-0.363,1.676-1.676V34.066c0-6.339,2.987-9.617,8.306-9.617c0.584,0,1.457,0.072,2.041,0.072
	c0.947,0,1.238-0.292,1.238-1.166v-1.529C132.373,20.806,132.008,20.369,131.135,20.369 M71.828,33.337
	c0-10.272-5.975-13.041-11.512-13.041c-4.371,0-8.379,1.822-10.199,6.556c-1.969-4.88-5.975-6.556-10.201-6.556
	c-5.538,0-11.511,2.769-11.511,13.041v16.611c0,1.312,0.291,1.676,1.675,1.676h1.238c1.385,0,1.676-0.363,1.676-1.676v-16.83
	c0-6.702,3.789-8.814,7.359-8.814c3.643,0,7.432,2.112,7.432,8.814v16.83c0,1.312,0.291,1.676,1.675,1.676h1.239
	c1.312,0,1.676-0.363,1.676-1.676v-16.83c0-6.702,3.861-8.814,7.432-8.814c3.643,0,7.358,2.112,7.358,8.814v16.83
	c0,1.312,0.364,1.676,1.677,1.676h1.312c1.312,0,1.675-0.363,1.675-1.676V33.337z M22.875,43.245c0,6.994-4.955,9.107-12.167,9.107
	c-3.133,0-5.757-0.219-9.254-1.166c-1.021-0.217-1.312-0.508-1.312-1.383V48.2c0-1.092,0.291-1.238,1.385-1.02
	c3.205,0.947,6.048,1.238,8.816,1.238c4.955,0,8.16-1.311,8.16-5.174c0-4.078-4.373-4.809-8.453-5.681
	c-4.808-1.021-9.617-2.625-9.617-8.744c0-7.359,6.121-8.524,11.731-8.524c2.841,0,6.12,0.292,8.306,0.946
	c0.947,0.293,1.239,0.584,1.239,1.239v1.677c0,1.02-0.364,1.165-1.385,0.946c-2.624-0.801-5.61-1.021-8.088-1.021
	c-3.57,0-7.431,0.51-7.431,4.517c0,3.57,3.643,4.228,8.086,5.247C17.701,34.939,22.875,36.616,22.875,43.245"/>
<path fill="#555759" d="M339.857,43.618v0.412c0,0.235-0.078,0.314-0.334,0.314c-0.156,0-0.391-0.021-0.549-0.021
	c-1.432,0-2.234,0.883-2.234,2.588v4.273c0,0.354-0.078,0.451-0.451,0.451h-0.334c-0.352,0-0.451-0.098-0.451-0.43v-4.295
	c0-2.549,1.295-3.705,3.471-3.705c0.158,0,0.373,0,0.549,0.02C339.758,43.226,339.857,43.344,339.857,43.618 M329.479,50.753
	c-1.92,0-3.076-1.292-3.076-3.215c0-1.92,1.156-3.254,3.076-3.254c1.922,0,3.098,1.334,3.098,3.254
	C332.576,49.461,331.4,50.753,329.479,50.753 M329.479,43.208c-2.664,0-4.352,1.781-4.352,4.33s1.688,4.293,4.352,4.293
	c2.666,0,4.371-1.744,4.371-4.293S332.164,43.208,329.479,43.208 M324.551,50.831v0.414c0,0.272-0.137,0.332-0.254,0.371
	c-0.275,0.098-0.666,0.119-0.924,0.119c-1.645,0-2.527-0.826-2.527-3.235v-6.882c0-0.373,0.1-0.451,0.451-0.451h0.293
	c0.393,0,0.512,0.078,0.512,0.451v1.785h1.684c0.314,0,0.393,0.08,0.393,0.392v0.217c0,0.293-0.078,0.39-0.393,0.39h-1.684v4.334
	c0,1.588,0.547,1.959,1.469,1.959c0.275,0,0.451-0.039,0.727-0.117C324.453,50.559,324.551,50.616,324.551,50.831 M319.191,49.382
	c0,1.881-1.332,2.449-3.273,2.449c-0.844,0-1.549-0.057-2.488-0.313c-0.275-0.058-0.355-0.137-0.355-0.372v-0.432
	c0-0.294,0.08-0.331,0.373-0.273c0.861,0.254,1.627,0.334,2.371,0.334c1.336,0,2.197-0.354,2.197-1.393
	c0-1.098-1.178-1.294-2.273-1.529c-1.295-0.275-2.588-0.705-2.588-2.353c0-1.979,1.645-2.292,3.154-2.292
	c0.766,0,1.646,0.078,2.236,0.254c0.254,0.078,0.334,0.156,0.334,0.333v0.45c0,0.275-0.1,0.314-0.373,0.255
	c-0.707-0.216-1.51-0.273-2.178-0.273c-0.961,0-1.998,0.136-1.998,1.216c0,0.959,0.98,1.137,2.178,1.412
	C317.799,47.147,319.191,47.598,319.191,49.382 M305.736,47.46c0-2.018,0.941-3.293,2.744-3.293c1.021,0,1.941,0.393,1.941,1.589
	c0,1.274-1.08,1.726-2.766,1.726h-1.92V47.46z M311.361,50.263c-0.607,0.217-1.449,0.529-2.51,0.529
	c-1.527,0-2.764-0.646-3.057-2.43h1.941c2.293,0,3.881-0.668,3.881-2.606c0-1.864-1.51-2.548-3.195-2.548
	c-2.744,0-3.861,1.859-3.861,4.312c0,2.842,1.527,4.311,4.213,4.311c1.1,0,2.02-0.235,2.688-0.508
	c0.273-0.121,0.312-0.217,0.312-0.472v-0.293C311.773,50.204,311.598,50.184,311.361,50.263 M303.902,43.815l-2.938,7.408
	c-0.139,0.333-0.256,0.412-0.609,0.412h-0.469c-0.371,0-0.49-0.079-0.629-0.412l-2.939-7.408c-0.139-0.334-0.078-0.414,0.275-0.414
	h0.412c0.35,0,0.471,0.1,0.568,0.433l2.547,6.646l2.512-6.646c0.096-0.333,0.213-0.433,0.566-0.433h0.432
	C303.984,43.401,304.043,43.481,303.902,43.815 M295.252,47.187v3.998c0,0.354-0.078,0.451-0.449,0.451h-0.334
	c-0.354,0-0.451-0.098-0.451-0.451v-4.02c0-1.801-0.824-2.842-2.412-2.842c-1.607,0-2.41,1.041-2.41,2.842v4.02
	c0,0.354-0.078,0.451-0.451,0.451h-0.332c-0.375,0-0.453-0.098-0.453-0.451v-3.998c0-2.488,1.197-3.979,3.646-3.979
	C294.057,43.208,295.252,44.698,295.252,47.187 M284.014,40.934c0-0.489,0.352-0.825,0.822-0.825c0.43,0,0.783,0.336,0.783,0.825
	c0,0.509-0.354,0.823-0.783,0.823C284.365,41.757,284.014,41.442,284.014,40.934 M286.795,50.891v0.372
	c0,0.255-0.059,0.333-0.293,0.393c-0.236,0.08-0.451,0.119-0.727,0.119c-1.215,0-1.586-0.59-1.586-2.002v-5.918
	c0-0.354,0.098-0.451,0.449-0.451h0.334c0.373,0,0.451,0.098,0.451,0.451v5.782c0,0.665,0.135,1.058,0.627,1.058
	c0.275,0,0.391-0.039,0.529-0.058C286.736,50.598,286.795,50.637,286.795,50.891 M277.84,47.187v3.998
	c0,0.354-0.076,0.451-0.449,0.451h-0.334c-0.352,0-0.451-0.098-0.451-0.451v-4.02c0-1.801-0.822-2.842-2.41-2.842
	c-1.607,0-2.412,1.041-2.412,2.842v4.02c0,0.354-0.078,0.451-0.451,0.451H271c-0.371,0-0.451-0.098-0.451-0.451v-3.998
	c0-2.488,1.195-3.979,3.646-3.979S277.84,44.698,277.84,47.187 M263.779,50.753c-1.961,0-3.039-1.371-3.039-3.232
	c0-1.863,1.098-3.236,3.039-3.236c1.959,0,3.115,1.373,3.115,3.236C266.895,49.382,265.719,50.753,263.779,50.753 M269.15,50.616
	c-0.08,0.039-0.217,0.078-0.354,0.078c-0.529,0-0.648-0.371-0.648-1.098v-2.038c0-2.647-1.723-4.351-4.389-4.351
	c-2.588,0-4.295,1.703-4.295,4.312c0,2.506,1.609,4.311,4.176,4.311c1.51,0,2.607-0.625,3.254-1.666
	c0.02,1.197,0.568,1.57,1.412,1.57c0.451,0,0.627-0.021,0.9-0.121c0.197-0.058,0.295-0.176,0.295-0.352v-0.449
	C269.502,50.556,269.426,50.556,269.15,50.616 M247.924,47.46c0-2.018,0.941-3.293,2.744-3.293c1.021,0,1.941,0.393,1.941,1.589
	c0,1.274-1.078,1.726-2.764,1.726h-1.922V47.46z M253.549,50.263c-0.607,0.217-1.449,0.529-2.51,0.529
	c-1.527,0-2.764-0.646-3.057-2.43h1.941c2.295,0,3.881-0.668,3.881-2.606c0-1.864-1.51-2.548-3.195-2.548
	c-2.746,0-3.861,1.859-3.861,4.312c0,2.842,1.527,4.311,4.213,4.311c1.1,0,2.02-0.235,2.688-0.508
	c0.273-0.121,0.312-0.217,0.312-0.472v-0.293C253.961,50.204,253.785,50.184,253.549,50.263 M241.152,44.284
	c1.941,0,3.039,1.373,3.039,3.236c0,1.859-1.117,3.234-3.137,3.234c-1.98,0-3.018-1.375-3.018-3.234
	C238.037,45.657,239.213,44.284,241.152,44.284 M241.072,39.813c2.842,0,7.264-0.947,7.264-7.196V21.756
	c0-0.567-0.127-0.726-0.695-0.726h-0.568c-0.568,0-0.727,0.158-0.727,0.726v7.167c-0.221,2.304-1.484,3.915-4.041,3.915
	c-2.398,0-3.725-1.39-3.725-4.169v-6.913c0-0.567-0.156-0.726-0.727-0.726h-0.568c-0.568,0-0.725,0.158-0.725,0.726v7.167
	c0,3.726,1.83,5.682,5.08,5.682c2.652,0,4.453-1.295,4.705-2.715V32.9c0,4.451-2.873,5.24-5.398,5.24
	c-1.643,0-2.65-0.315-3.568-0.632c-0.348-0.126-0.598-0.126-0.598,0.411v0.599c0,0.004,0,0.006,0,0.01v8.912
	c0,2.549,1.568,4.391,4.252,4.391c2.689,0,4.434-1.705,4.434-4.311c0-2.511-1.609-4.314-4.197-4.314
	c-1.527,0-2.625,0.628-3.254,1.668v-5.438C238.811,39.651,239.934,39.813,241.072,39.813 M230.549,47.187v3.998
	c0,0.354-0.078,0.451-0.451,0.451h-0.332c-0.354,0-0.451-0.098-0.451-0.451v-4.02c0-1.801-0.824-2.842-2.412-2.842
	c-1.607,0-2.41,1.041-2.41,2.842v4.02c0,0.354-0.08,0.451-0.451,0.451h-0.336c-0.371,0-0.449-0.098-0.449-0.451v-3.998
	c0-2.488,1.197-3.979,3.646-3.979S230.549,44.698,230.549,47.187 M216.486,50.753c-1.961,0-3.039-1.371-3.039-3.232
	c0-1.863,1.098-3.236,3.039-3.236c1.959,0,3.117,1.373,3.117,3.236C219.604,49.382,218.428,50.753,216.486,50.753 M221.857,50.616
	c-0.08,0.039-0.217,0.078-0.352,0.078c-0.529,0-0.648-0.371-0.648-1.098v-2.038c0-2.647-1.725-4.351-4.393-4.351
	c-2.586,0-4.291,1.703-4.291,4.312c0,2.506,1.605,4.311,4.176,4.311c1.508,0,2.605-0.625,3.254-1.666
	c0.018,1.197,0.568,1.57,1.41,1.57c0.453,0,0.627-0.021,0.902-0.121c0.195-0.058,0.295-0.176,0.295-0.352v-0.449
	C222.211,50.556,222.131,50.556,221.857,50.616 M211.242,50.813v0.254c0,0.354-0.135,0.471-0.389,0.51
	c-0.529,0.158-1.119,0.254-1.688,0.254c-2.764,0-4.449-1.588-4.449-4.293c0-2.743,1.686-4.33,4.371-4.33
	c0.629,0,1.215,0.097,1.766,0.293c0.254,0.039,0.371,0.156,0.371,0.509v0.235c0,0.332-0.139,0.414-0.354,0.354
	c-0.471-0.178-0.979-0.314-1.605-0.314c-2.119,0-3.236,1.275-3.236,3.236c0,1.94,1.078,3.254,3.275,3.254
	c0.588,0,1.117-0.119,1.549-0.275C211.146,50.44,211.242,50.538,211.242,50.813 M282.492,27.565c0-3.252,1.516-5.304,4.42-5.304
	c1.643,0,3.125,0.631,3.125,2.558c0,2.051-1.736,2.777-4.449,2.777h-3.096V27.565z M292.217,33.027v-0.474
	c0-0.568-0.283-0.6-0.664-0.475c-0.979,0.347-2.336,0.854-4.039,0.854c-2.463,0-4.453-1.043-4.926-3.915h3.125
	c3.693,0,6.252-1.072,6.252-4.198c0-2.999-2.432-4.104-5.148-4.104c-4.418,0-6.217,2.999-6.217,6.944
	c0,4.578,2.461,6.945,6.785,6.945c1.77,0,3.254-0.379,4.328-0.82C292.152,33.595,292.217,33.437,292.217,33.027 M278.484,27.123
	v6.44c0,0.567-0.127,0.727-0.727,0.727h-0.537c-0.568,0-0.725-0.159-0.725-0.727v-6.473c0-2.903-1.326-4.577-3.885-4.577
	c-2.588,0-3.883,1.674-3.883,4.577v6.473c0,0.567-0.125,0.727-0.727,0.727h-0.535c-0.602,0-0.727-0.159-0.727-0.727v-6.44
	c0-4.009,1.924-6.408,5.871-6.408S278.484,23.114,278.484,27.123 M257.615,32.869c-3.094,0-4.957-2.084-4.957-5.177
	c0-3.095,1.863-5.241,4.957-5.241s4.988,2.146,4.988,5.241C262.604,30.785,260.709,32.869,257.615,32.869 M264.656,27.692
	c0-4.105-2.715-6.978-7.041-6.978c-4.293,0-7.01,2.872-7.01,6.978c0,4.104,2.717,6.912,7.01,6.912
	C261.91,34.604,264.656,31.796,264.656,27.692 M233.812,27.123v6.44c0,0.567-0.125,0.727-0.725,0.727h-0.537
	c-0.57,0-0.727-0.159-0.727-0.727v-6.473c0-2.903-1.328-4.577-3.885-4.577c-2.588,0-3.881,1.674-3.881,4.577v6.473
	c0,0.567-0.127,0.727-0.727,0.727h-0.537c-0.6,0-0.727-0.159-0.727-0.727v-6.44c0-4.009,1.928-6.408,5.871-6.408
	C231.889,20.715,233.812,23.114,233.812,27.123 M211.777,32.869c-3.158,0-4.893-2.21-4.893-5.208c0-3,1.766-5.211,4.893-5.211
	c3.158,0,5.021,2.211,5.021,5.211C216.799,30.659,214.902,32.869,211.777,32.869 M216.799,31.922
	c0.029,1.926,0.916,2.526,2.271,2.526c0.727,0,1.01-0.031,1.453-0.191c0.314-0.096,0.473-0.283,0.473-0.568v-0.725
	c0-0.412-0.127-0.412-0.568-0.314c-0.125,0.062-0.348,0.126-0.568,0.126c-0.852,0-1.041-0.602-1.041-1.77v-3.283
	c0-4.262-2.779-7.009-7.072-7.009c-4.168,0-6.912,2.747-6.912,6.947c0,4.04,2.588,6.943,6.723,6.943
	C213.986,34.604,215.756,33.595,216.799,31.922"/>
</svg>
