<?xml version="1.0" encoding="utf-8"?>
<!-- Generator: Adobe Illustrator 16.0.4, SVG Export Plug-In . SVG Version: 6.00 Build 0)  -->
<!DOCTYPE svg PUBLIC "-//W3C//DTD SVG 1.1//EN" "http://www.w3.org/Graphics/SVG/1.1/DTD/svg11.dtd">
<svg version="1.1" id="Layer_2" xmlns="http://www.w3.org/2000/svg" xmlns:xlink="http://www.w3.org/1999/xlink" x="0px" y="0px"
	 width="256px" height="256px" viewBox="0 0 256 256" enable-background="new 0 0 256 256" xml:space="preserve">
<path fill="#00A7CF" d="M244.071,129.488h-41.667c0-39.586-30.936-71.859-69.94-74.178V35.738h43.155c2.465,0,4.464-2,4.464-4.464
	V7.464C180.083,5,178.084,3,175.619,3H128c-2.465,0-4.464,2-4.464,4.464v23.81V55.31c-39.001,2.319-69.938,34.592-69.938,74.178
	H11.929c-4.933,0-8.929,3.993-8.929,8.929v105.654c0,4.93,3.996,8.929,8.929,8.929h20.833h8.929H65.5h5.952h2.977h5.952h23.81h2.976
	h5.953h2.976h23.809h2.977h5.952h2.977h23.81h2.977h5.952h2.976h23.81h8.929h23.81c4.93,0,8.929-3.999,8.929-8.929V138.417
	C253,133.481,249.001,129.488,244.071,129.488z M132.464,11.929h38.69V26.81h-38.69V11.929z M128,64.012
	c36.104,0,65.477,29.373,65.477,65.477H62.527C62.527,93.384,91.899,64.012,128,64.012z M41.69,244.071V190.5
	c0-6.545,5.356-11.904,11.905-11.904c6.606,0,11.905,5.359,11.905,11.904v53.571H41.69z M80.381,244.071V190.5
	c0-6.545,5.356-11.904,11.905-11.904c6.606,0,11.905,5.359,11.905,11.904v53.571H80.381z M116.095,244.071V190.5
	c0-6.545,5.356-11.904,11.905-11.904c6.609,0,11.904,5.359,11.904,11.904v53.571H116.095z M151.81,244.071V190.5
	c0-6.545,5.359-11.904,11.904-11.904c6.609,0,11.905,5.359,11.905,11.904v53.571H151.81z M187.523,244.071V190.5
	c0-6.545,5.359-11.904,11.905-11.904c6.609,0,11.904,5.359,11.904,11.904v53.571H187.523z M244.071,244.071h-23.81V190.5
	c0-11.486-9.347-20.833-20.833-20.833c-7.621,0-14.225,4.109-17.857,10.178c-3.633-6.068-10.236-10.178-17.857-10.178
	c-7.62,0-14.224,4.109-17.856,10.178c-3.633-6.068-10.236-10.178-17.857-10.178c-7.618,0-14.227,4.109-17.857,10.178
	c-3.63-6.068-10.24-10.178-17.857-10.178c-8.809,0-16.311,5.476-19.345,13.212c-3.034-7.736-10.536-13.212-19.345-13.212
	c-11.489,0-20.833,9.347-20.833,20.833v53.571H11.929V138.417h232.143V244.071z"/>
</svg>
